<?xml version="1.0" encoding="UTF-8"?>
<!-- Generator: Adobe Illustrator 12.0.0, SVG Export Plug-In . SVG Version: 6.00 Build 51448)  -->
<!DOCTYPE svg PUBLIC "-//W3C//DTD SVG 1.1//EN" "http://www.w3.org/Graphics/SVG/1.1/DTD/svg11.dtd" [
	<!ENTITY ns_svg "http://www.w3.org/2000/svg">
	<!ENTITY ns_xlink "http://www.w3.org/1999/xlink">
]>
<svg version="1.1" id="Layer_1" xmlns="http://www.w3.org/2000/svg" xmlns:xlink="http://www.w3.org/1999/xlink" width="287.324" height="294.912" viewBox="0 0 287.324 294.912" overflow="visible" enable-background="new 0 0 287.324 294.912" xml:space="preserve">
<g>
	<path fill="#990000" d="M202.319,201.096c1.921-3.134,6.005-9.556,5.128-13.278c-1.679,6.391-5.938,9.691-8.856,15.196   C199.74,202.207,200.98,201.529,202.319,201.096z M216.089,183.835c-0.18,1.228-0.032,2.657,0.434,3.375   c0.179,0.16,0.283,0.315,0.283,0.315c0.401,0.321,0.983,0.598,1.53,0.701c0.11,0.021,0.219,0.034,0.324,0.04   c0.741-0.106,2.335-0.946,3.345-2.224C220.028,185.888,217.532,184.977,216.089,183.835z M188.385,221.441   c0.65,0.185,1.378,0.357,2.126,0.546c2.888-2.074,6.482-4.108,9.976-4.597c-1.033-0.413-2.369-0.326-3.78,0.032   c-2.741,0.71-5.748,2.41-7.378,3.48C189.329,220.904,188.912,221.12,188.385,221.441z M186.027,221.074   c-1.231-3.265-0.332-5.977,0.76-8.03c1.177-2.213,4.177-6.488,5.5-8.049c1.845-2.177,2.298-3.881,1.938-6.698   c2.822,0.498,3.815,2.15,2.537,5.217c1.503-3.579,4.456-6.053,6.41-9.255c1.883-3.088,2.911-6.222,3.476-9.756   c1.813,1.813,2.588,2.514,2.237,5.438c-0.394,3.28-2.513,7.23-4.581,10.674c1.065-0.184,2.223-0.286,3.568-0.372l1.104-0.078   c1.638-1.743,5.646-8.805,6.585-12.021c-1.13-1.478-1.272-3.77-0.585-5.693c-1.757-1.904-3.061-4.352-3.515-7.905   c-0.465-3.644-0.099-8.548,0.537-12.001c0.312-1.693,0.556-4.297,0.323-6.075c1.412-0.706,2.836-1.075,4.445-0.702   c1.861-1.347,3.774-0.251,4.751,0.682c1.7-0.648,3.745-0.785,5.665-0.611c5.749,0.519,9.553,3.897,12.323,10.545   c1.872,0.486,2.681,2.124,3.625,3.608c-2.996,2.197-5.302,5.042-7.701,7.847c-3.526,4.122-6.239,6.897-11.549,7.812   c-0.726,1.605-2.812,3.501-4.711,3.945c-0.603,1.313-1.494,3.228-2.285,4.809c-0.864,1.728-1.807,3.558-2.663,4.917   c2.259-0.707,4.023-1.959,6.731-4.38c1.786-1.597,3.784-4.462,5.226-6.445c-0.744,6.163-1.815,10.321-7.976,13.38   c-2.328,1.156-4.953,1.607-7.48,1.86c-0.398,0.526-0.821,1.097-1.257,1.692c2.735,0.49,5.546,0.242,7.823-1.466   c0,0,0.057,3.53-3.779,5.029c-2.01,0.785-4.807,0.903-7.133,0.798c0.398,0.525,0.891,1.149,1.111,1.916   c0.889,3.103-0.777,4.954-2.781,6.94c0.056-1.392,0.403-4.356-0.579-5.438c-0.247,0.34-0.53,0.705-0.826,0.976   c-0.622,0.715-1.29,1.39-1.97,2.05c0.619,0.313,1.187,0.813,1.485,1.545l0.455,1.115c-3.95-0.499-7.712,1.338-10.953,3.544   c2.178,0.332,5.194-0.698,6.186-1.187c2.577-1.27,5.701,0.169,6.664,1.792l0.878,1.48c-4.513-1.197-4.024-1.059-7.959,1.192   c-1.755,1.004-4.351,0.997-6.857,0.625c1.615,1.624,2.272,1.486,4.415,0.954c-0.931,1.598-1.813,3.407-4.081,3.328   c-0.665-0.023-1.385-0.113-2.089-0.265c1.125,2.138,1.225,5.159,0.168,6.807c-1.167,1.82-3.994,2.948-5.879,3.803   c0.814-1.293,2.776-4.138,2.74-5.735c-0.092-4.137-5.308-5.952-9.318-3.771c3.834,0.211,3.306,2.236,7.592,1.979   c-1.664,2.495-3.411,3.835-6.639,2.09c-4.913-2.657-7.404-0.723-12.083,0.555c-2.851,0.778-6.247,1.427-9.198,0.863   c-4.376,3.609-8.989,6.985-13.831,10.101c-4.55-3.156-8.902-6.524-13.048-10.085c-4.393,0.142-9.184-0.236-12.682-1.892   c-2.681-1.269-3.754-2.639-6.646-1.063c-1.926,1.049-4.821,0.58-6.43-0.881l-1.232-1.119c2.879-0.18,5.18-0.109,7.842-1.414   c-1.458-0.784-4.937-1.698-6.973-0.795c-3.898,1.729-4.29,6.116-3.168,10.28l-1.718-1.454c-1.882-1.696-2.247-3.498-2.115-5.531   c0.114-1.759,1.039-3.403,2.208-4.668c-1.808,0.833-4.822,0.777-5.943-1.235l-0.627-1.127c2.346,0.566,3.105,0.196,5.558-1.217   c-5.733,0.697-7.953-0.595-13.057-2.34c-1.781-0.609-2.438-0.914-4.58-0.329c1.086-2.203,2.812-2.945,5.951-2.733   c1.893,0.128,3.855,0.582,4.946,0.725c0.601,0.079,1.372,0.105,2.21,0.105c-2.213-0.333-4.028-0.744-5.674-2.413   c-0.784-0.794-1.736-2.935-1.583-4.027l0.03-0.215c-0.721-0.466-1.448-0.865-1.958-1.042c-0.227-0.079-0.45-0.187-0.668-0.31   c-1.32,0.83-2.546,1.836-3.677,2.726c-0.169-5.086,1.995-6.689,3.394-7.194c-4.24,0.829-9.003,1.278-12.09-2.678l-1.067-1.368   c2.06,0.535,5.365,0.724,7.194,0.704l-1.691-0.262c-6.18-1.723-13.792-4.981-14.458-12.458l-0.236-2.651   c3.527,5.095,4.401,5.07,9.656,7.724c0.366,0.185,1.076,0.444,1.965,0.734c-1.729-2.65-3.123-6.399-4.922-8.655   c-1.246-0.366-3.829-2.409-4.463-3.825c-0.102-0.023-0.2-0.037-0.295-0.041c-3.784-0.156-7.457-2.168-11.259-5.422   c-3.232-2.766-4.985-7.395-7.662-10.308c-0.442-0.48-0.593-0.451-1.304-0.762c1.012-1.163,2.015-2.166,3.414-2.875   c0.54-0.273,1.145-0.527,1.76-0.555c1.669-4.673,6.064-6.467,10.01-8.629c4.323-2.37,4.485,1.068,8-0.185   c1.249-0.445,3.456-1.427,4.563-0.225c0.768,0.156,1.954-1.646,4.072-0.56c-0.282,1.854,0.519,5.036,0.829,6.908   c0.495,2.987,0.974,6.424,0.633,8.696c-0.461,3.073-1.287,7.712-4.189,10.539c0.222,1.014,0.202,4.244-0.556,5.459l0.095,0.167   c0.186,0.299,1.637,2.973,3.184,5.748c1.422,2.55,2.324,4.232,3.728,6.159c0.643,0.169,1.232,0.318,1.723,0.435   c0.39,0.093,0.912,0.226,1.519,0.389c-1.057-1.246-1.856-2.773-2.376-4.032c-0.861-2.083-1.221-8.217,0.063-10.658l1.002-1.907   c0.613,4.141,1.466,8.47,3.511,12.18c0.816,1.481,4.321,4.979,5.884,6.931c-0.472-2.57,1.147-3.567,3.059-4.417l-0.32,1.376   c-0.314,1.348,1.249,3.854,2.882,5.646c2.029,2.226,3.169,5.108,4.957,7.495c0.428,0.571,2.573,5.271,3.155,7.626   c3.554,0.238,6.376,1.135,9.094,4.636c1.053,1.356,1.871,2.77,2.635,3.774c2.23,2.933,6.938,4.516,10.561,4.449   c-30.458-28.145-48.833-67.053-51.948-107.945c-1.119-14.69-0.256-29.645,2.708-44.438l1.338,0.5   c18.372,6.858,51.542-0.749,65.109-14.945c14.423,15.094,48.952,21.227,67.801,14.191c11.06,55.201-7.307,115.095-49.37,152.687   c3.222-0.261,9.841-2.313,10.465-3.624C175.442,221.771,180.023,220.257,186.027,221.074z M187.309,220.458   c0.351-0.229,0.71-0.445,1.081-0.646c-2.096-4.445,3.851-9.505,7.793-10.347c1.644-0.351,3.957-0.207,5.913,0.604l0.377,0.121   c2.078,1.076,3.705,2.848,3.376,5.763c1.602-3.797-0.911-6.302-1.345-6.581c-1.4-0.898-3.962-1.128-6.565-1.234   c3.341-0.633,6.463,0.029,7.621,0.192c2.961,0.227,8.78,0.092,10.638-2.814c-1.538,1.561-6.098,1.564-7.937,1.097   c-1.512-0.384-6.654-0.258-8.412,0.101l-2.583,0.528l1.977-1.745c5.61-4.952,18.258,0.018,24.024-9.652   c0.296-0.496,1.23-2.34,1.614-4.023c-2.434,4.182-6.311,8.131-11.914,9.166c-6.251,1.154-7.889-0.28-14.073,3.29   c-1.512,0.873-4.479,2.887-4.479,2.887s1.002-2.749,1.237-3.602c0.242-0.877,1.256-2.801-0.218-3.826   c0.256,2.58-0.979,4.873-2.074,6.166c-1.268,1.497-4.208,5.688-5.331,7.8C186.806,216.006,186.463,218.102,187.309,220.458z    M189.593,219.07c0.603-0.373,1.223-0.733,1.857-1.07l0.053-0.281c0.327-1.776,0.731-3.478,1.32-5.15   C190.428,214.352,188.783,217.055,189.593,219.07z M193.085,217.204c0.354-0.156,0.712-0.302,1.073-0.438l0.032-0.172   c0.248-1.345,0.54-2.647,0.922-3.926l-0.385,0.077c-0.195,0.035-0.368,0.127-0.522,0.253   C193.754,214.376,193.439,215.773,193.085,217.204z M195.727,216.262l0.258-0.067c1.052-0.909,2.747-2.529,3.24-3.044l0.182-0.207   c0.125-0.146,0.25-0.275,0.374-0.39c0.478-0.479,0.955-0.907,1.27-1.352c-1.219-0.438-2.53-0.604-3.742-0.488   C196.592,212.527,196.2,214.365,195.727,216.262z M198.497,215.81c0.436-0.023,0.874-0.022,1.315,0.004   c0.324-0.376,1.464-1.471,2.189-2.265c-0.584-0.522-1.065-0.254-1.581,0.371C200.225,214.155,199.388,214.975,198.497,215.81z    M224.306,184.108c7.943-2.132,10.821-9.42,16.947-14.457l-0.234-0.361c-0.636-0.948-1.078-1.354-2.093-1.584   c-2.497,1.82-5.358,7.104-7.169,9.534C230.167,179.372,227.296,182.401,224.306,184.108z M238.064,166.598   c-2.158-4.958-5.103-8.829-11.009-9.362c-2.168-0.196-3.936,0.004-5.917,0.912c-1.008-1.229-2.092-2.061-3.474-1.245   c0.133,2.53-1.259,7.066-1.775,9.446c-0.426,1.965-1.005,8.774-0.278,11.264c0.371,1.267,1.302,4.678,2.445,5.406   c0.524,0.459,1.426,0.985,2.112,0.987c3.633,0.01,8.462-4.919,10.462-7.604C232.624,173.726,235.273,168.659,238.064,166.598z    M216.27,157.119c-0.821-0.147-1.597-0.099-2.455,0.206c0.043,1.309-0.125,3.77-0.438,5.473c-0.619,3.363-0.965,8.114-0.524,11.57   c0.238,1.868,0.942,3.742,1.946,5.414c-0.217-0.67-0.394-1.294-0.535-1.776c-0.831-2.843-0.183-9.942,0.253-11.955   C214.97,163.963,216.332,159.397,216.27,157.119z M212.173,199.8c1.638-2.014,4.356-7.813,5.439-10.161   c-0.326-0.062-0.657-0.169-0.959-0.333c-1.112,3.086-3.894,8.108-5.741,10.673C211.356,199.927,211.775,199.868,212.173,199.8z    M205.843,204.135c-2.251,0.22-4.124,0.59-5.202,1.644c1.815-0.394,3.252-0.667,4.535-0.765L205.843,204.135z M186.136,223.689   l1.334,0.386c2.937,0.812,7.569,1.762,9.92,0.417c0.974-0.557,3.468-2.425,6.018-1.757c-3.675-2.532-6.419,2.287-11.935,0.959   c-8.386-2.018-13.994-2.927-18.456,6.436c-0.898,1.885-9.637,4.903-13.202,4.312l-1.493,1.282c3.709,0.28,8.06-1.168,11.423-2.241   c3.294-1.051,5.842-0.934,9.063,0.808c1.291,0.698,2.043,1.19,4.072,0.121c-2.269-0.02-3.624-1.388-5.074-1.829   c-0.813-0.247-1.712-0.398-2.537-0.586c2.478-2.712,3.952-3.097,7.615-2.62c3.702,0.481,5.06,4.117,5.026,5.823   c-0.032,1.606-1.027,2.854-1.825,3.747c0.857-0.578,1.792-1.368,2.373-2.542c0.714-1.446,0.65-4.551-0.77-6.202   c-0.297-0.346-1.745-1.311-1.745-1.311c-2.441-1.363-6.278-2.262-8.195-1.02c0,0-0.563,0.282-2.04,1.829   c0.232-0.873,1.47-2.859,1.86-3.351C179.703,223.659,182.671,222.616,186.136,223.689z M189.781,226.86   c-0.495-0.532-1.408-1.013-2.488-1.368c-0.576-0.157-1.106-0.314-1.574-0.459c-2.33-0.721-4.524-0.333-6.204,0.913   c2.254-0.403,4.97,0.326,7.027,1.538c0.388,0.229,0.751,0.476,1.084,0.736c1.179,0.634,3.851,1.425,5.057,0.706   C191.85,228.64,190.858,228.017,189.781,226.86z M76.427,129.193c3.904-1.359,10.408-2.887,14.543-2.887   c12.35,0,19.164,6.755,32.85,3.792c6.155-1.333,12.345-4.056,18.706-4.056c8.474,0,16.713,4.736,26.095,4.907   c7.628,0.139,16.682-4.643,25.461-4.643c4.926,0,13.21,2.167,16.461,3.635c0.093-0.853,0.179-1.706,0.258-2.56l-0.493-0.225   c-3.059-1.967-13.355-3.799-16.227-3.799c-12.528,0-18.646,6.911-33.328,3.748c-5.939-1.28-12.124-4.012-18.228-4.012   c-6.152,0-12.263,2.712-18.229,4.004c-14.673,3.178-20.797-3.74-33.327-3.74c-2.552,0-10.748,1.41-14.808,3.091   C76.243,127.364,76.331,128.279,76.427,129.193z M210.266,132.332c-3.11-1.957-13.326-3.772-16.184-3.772   c-12.528,0-18.646,6.911-33.328,3.747c-5.939-1.279-12.124-4.011-18.228-4.012c-6.152,0-12.263,2.713-18.229,4.005   c-14.673,3.178-20.797-3.74-33.327-3.74c-2.448,0-10.089,1.297-14.292,2.887c0.116,0.973,0.241,1.945,0.375,2.917   c3.945-1.301,9.995-2.675,13.917-2.675c12.35,0,19.164,6.756,32.85,3.792c6.155-1.333,12.346-4.055,18.706-4.056   c8.475,0,16.714,4.736,26.095,4.907c7.628,0.139,16.682-4.643,25.461-4.643c4.63,0,12.229,1.916,15.825,3.365   C210.034,134.146,210.153,133.239,210.266,132.332z M75.978,124.151l0.171-0.062l-0.176-0.008L75.978,124.151z M78.287,123.391   c2.657-0.8,5.951-1.573,8.898-1.983l-11.451-1.316c0.05,1.053,0.11,2.105,0.181,3.158L78.287,123.391z M90.139,121.124   c0.286-0.013,0.564-0.019,0.832-0.019c3.849,0,7.161,0.656,10.31,1.47l14.747,1.92l0.056-0.631l-40.482-7.543   c0.023,0.974,0.055,1.948,0.096,2.921L90.139,121.124z M104.163,123.359c3.775,1.056,7.48,2.13,11.805,2.283   c0.008-0.309,0.022-0.616,0.042-0.921L104.163,123.359z M142.526,120.84c8.1,0,15.985,4.327,24.857,4.858   c-0.32-12.076-11.113-21.927-24.581-21.927c-13.441,0-24.217,9.811-24.579,21.853c1.745-0.069,3.598-0.295,5.597-0.728   C129.975,123.563,136.165,120.84,142.526,120.84z M171.005,125.646c3.065-0.297,6.319-1.186,9.662-2.099l-11.067,1.272   c0.019,0.301,0.031,0.604,0.038,0.909L171.005,125.646z M183.499,122.785c3.499-0.912,7.063-1.681,10.583-1.681   c0.543,0,1.128,0.026,1.742,0.076l15.531-2.023c0.041-0.989,0.073-1.979,0.096-2.968l-41.916,7.81l0.05,0.599L183.499,122.785z    M198.489,121.499c2.906,0.446,6.074,1.213,8.603,1.992l4.039-0.241c0.072-1.074,0.134-2.149,0.185-3.225L198.489,121.499z    M209.166,124.185c0.747,0.274,1.375,0.539,1.841,0.777l0.065-0.862L209.166,124.185z M142.814,100.89l-0.259-30.858   c-0.882,0.822-1.851,1.626-2.896,2.409l1.815,29.107c0.44-0.02,0.883-0.03,1.328-0.03L142.814,100.89z M146.312,72.608   c-1.054-0.764-2.03-1.55-2.919-2.354l-0.208,31.266c0.443,0.006,0.884,0.021,1.321,0.047L146.312,72.608z M141.111,101.566   l-2.215-28.567c-1.403,1.002-2.931,1.969-4.563,2.891l4.37,25.916C139.496,101.693,140.299,101.613,141.111,101.566z    M138.342,101.859l-4.71-25.579c-0.768,0.42-1.558,0.831-2.367,1.231l5.925,24.55C137.571,101.986,137.955,101.919,138.342,101.859   z M136.83,102.134l-6.252-24.288c-0.826,0.397-1.67,0.783-2.532,1.158l7.426,23.449C135.919,102.336,136.372,102.23,136.83,102.134   z M135.115,102.549l-7.751-23.252c-1.847,0.782-3.767,1.51-5.742,2.179l9.767,22.385   C132.586,103.342,133.831,102.903,135.115,102.549z M131.06,104.007l-10.133-22.298c-0.792,0.261-1.592,0.512-2.398,0.753   l11.504,22.031C130.371,104.324,130.713,104.162,131.06,104.007z M129.711,104.656l-11.904-21.982   c-0.917,0.266-1.842,0.519-2.773,0.757l13.457,21.894C128.891,105.093,129.298,104.87,129.711,104.656z M128.179,105.509   l-13.911-21.885c-2.124,0.525-4.278,0.979-6.443,1.354l17.775,22.287C126.42,106.633,127.281,106.047,128.179,105.509z    M125.33,107.475l-18.384-22.35c-1.072,0.175-2.146,0.33-3.22,0.463l20.752,22.588C124.756,107.938,125.04,107.704,125.33,107.475z    M124.218,108.403l-21.491-22.696c-1.343,0.152-2.684,0.271-4.015,0.355l24.546,23.233   C123.57,108.991,123.89,108.693,124.218,108.403z M123.013,109.538L97.52,86.128c-3.155,0.15-6.256,0.102-9.233-0.171l32.23,26.497   C121.27,111.423,122.105,110.449,123.013,109.538z M120.364,112.666L86.636,85.781c-2.697-0.329-5.278-0.852-7.689-1.588   l40.96,29.134L120.364,112.666z M119.764,113.544L78.079,84.833c-0.247,1.334-0.475,2.671-0.684,4.011l41.835,25.559   C119.402,114.112,119.58,113.827,119.764,113.544z M119.099,114.626L77.232,89.909c-0.443,2.969-0.797,5.949-1.063,8.935   l41.165,19.566C117.81,117.095,118.401,115.831,119.099,114.626z M117.244,118.662L76.082,99.854   c-0.094,1.141-0.176,2.284-0.245,3.426l41.155,16.146L117.244,118.662z M116.914,119.682l-41.133-15.426   c-0.064,1.191-0.114,2.382-0.151,3.574l41.007,12.867C116.722,120.355,116.814,120.017,116.914,119.682z M75.583,115.452   l40.525,8.186c0.104-0.911,0.26-1.807,0.468-2.685l-40.971-12.18C75.55,111,75.542,113.227,75.583,115.452z M77.361,136.492   c6.391,42.273,29.529,82.236,65.717,107.625c36.631-23.881,59.906-64.224,66.492-106.784c-3.717-1.805-12.816-3.392-15.488-3.392   c-12.528,0-18.646,6.911-33.328,3.748c-5.939-1.28-12.124-4.012-18.228-4.012c-6.152,0-12.263,2.713-18.229,4.005   c-14.673,3.178-20.797-3.741-33.327-3.741C88.54,133.941,81.434,134.994,77.361,136.492z M169.512,123.779l41.957-8.475   c0.041-2.274,0.032-4.548-0.025-6.819l-42.385,12.6C169.262,121.965,169.414,122.864,169.512,123.779z M169,120.83l42.417-13.31   c-0.038-1.211-0.09-2.422-0.156-3.631l-42.526,15.949C168.831,120.166,168.918,120.497,169,120.83z M168.661,119.586l42.542-16.691   c-0.07-1.153-0.153-2.305-0.249-3.456l-42.523,19.429L168.661,119.586z M168.345,118.62l42.52-20.209   c-0.274-3.047-0.64-6.083-1.097-9.104l-43.168,25.486C167.293,116.012,167.878,117.291,168.345,118.62z M166.473,114.57   L209.6,88.222c-0.218-1.372-0.455-2.74-0.71-4.104l-42.949,29.583C166.124,113.987,166.301,114.277,166.473,114.57z M165.8,113.484   l41.024-29.179c-2.267,0.607-4.681,1.042-7.198,1.318L165.405,112.9L165.8,113.484z M165.257,112.689L197.99,85.78   c-3.017,0.247-6.163,0.278-9.366,0.117l-25.896,23.78C163.651,110.618,164.497,111.625,165.257,112.689z M162.486,109.434   l24.94-23.606c-1.33-0.086-2.668-0.205-4.009-0.354l-21.859,23.084C161.875,108.842,162.185,109.135,162.486,109.434z    M161.302,108.33l21.107-22.974c-1.048-0.129-2.098-0.276-3.146-0.441l-18.729,22.769   C160.794,107.894,161.05,108.109,161.302,108.33z M160.268,107.47l18.105-22.7c-2.241-0.375-4.472-0.83-6.67-1.357l-14.109,22.2   C158.527,106.18,159.42,106.801,160.268,107.47z M157.285,105.426l13.645-22.203c-0.912-0.227-1.817-0.466-2.715-0.717   l-12.067,22.284C156.532,104.993,156.912,105.206,157.285,105.426z M155.828,104.624l11.658-22.325   c-0.79-0.228-1.573-0.465-2.349-0.711l-10.258,22.572C155.199,104.309,155.516,104.463,155.828,104.624z M154.553,104.011   l9.883-22.649c-2.037-0.664-4.017-1.39-5.918-2.169l-7.806,23.418C152.038,102.989,153.321,103.458,154.553,104.011z    M150.356,102.514l7.474-23.605c-0.868-0.366-1.719-0.743-2.55-1.13L149,102.183C149.457,102.282,149.909,102.393,150.356,102.514z    M148.64,102.106l5.949-24.655c-0.764-0.367-1.511-0.743-2.239-1.127l-4.713,25.595   C147.973,101.976,148.308,102.039,148.64,102.106z M147.276,101.861l4.369-25.915c-1.634-0.891-3.165-1.826-4.571-2.798   l-2.205,28.442C145.682,101.648,146.484,101.739,147.276,101.861z M97.687,218.372c0.549,0.412,1.122,0.82,1.66,1.181   c-0.777-1.765-1.869-4.167-2.866-6.077c-0.242-0.463-0.642-0.873-1.151-1.229c0.402,0.646,0.429,1.316,0.625,2.924   c0.038,0.309,0.088,0.533,0.159,0.692l0.291,0.665c0.076,0.167,0.148,0.316,0.235,0.462c0.256,0.429,0.62,0.776,0.975,1.121   C97.646,218.2,97.67,218.288,97.687,218.372z M94.448,216.383l0.415,0.125c-0.454-1.027-0.456-2.896-0.809-3.644   c-0.502-1.064-1.689-1.601-2.073-1.923l-1.139-0.116c1.576,1.505,2.288,1.936,2.721,4.039c0.375,0.623,0.658,1.061,0.802,1.337   L94.448,216.383z M86.607,201.511c-3.788-4.223-5.286-6.581-6.781-12.434c-0.249,4.134,0.388,6.961,2.78,10.289   c0.33,0.458,0.668,0.869,1.012,1.219C84.581,200.866,85.611,201.183,86.607,201.511z M64.858,184.945   c0.575,0.715,2.09,2.132,2.909,2.436c1.195-0.245,1.665-0.449,2.36-1.059c0.317-0.563,0.453-2.238,0.429-3.405   C69.133,184.007,66.544,184.724,64.858,184.945z M70.156,181.329c2.822-7.865,0.713-15.495-0.683-23.175   c-0.083-0.456-0.148-0.875-0.177-1.236c-0.818-0.218-3.561,0.972-4.257,1.087c-2.8,0.464-3.15-2.102-6.428-0.305   c-4.402,2.413-6.993,3.443-9.797,7.604c1.583,2.043,2.846,4.649,4.19,6.847c1.832,2.996,3.809,5.927,5.464,7.239   c1.947,1.543,4.65,3.63,6.328,4.151C66.823,183.262,69.691,182.242,70.156,181.329z M70.191,188.012   c-0.445,0.265-0.879,0.438-1.389,0.571c0.623,0.549,1.137,1.114,1.457,1.676c1.304,2.291,2.94,5.967,4.523,7.783l1.271,0.389   C73.995,195.024,72.268,191.393,70.191,188.012z M72.359,178.685c1.366-2.364,1.921-5.362,2.285-7.789   c0.683-4.552-1.333-9.777-1.565-14.331c-0.655,0.191-1.514,0.736-2.308,0.857c0.104,0.664,0.294,1.564,0.534,2.695   C72.579,166.123,73.648,172.583,72.359,178.685z M61.619,183.461c-1.445-0.936-2.929-2.104-4.023-2.971   c-2.882-2.285-6.23-8.345-8.292-11.8c-0.538-0.902-0.998-1.651-1.364-2.188c-0.36,0.027-0.88,0.273-1.139,0.404   c-0.605,0.307-1.27,0.759-1.846,1.292c2.973,3.231,4.438,7.563,7.677,10.333C55.816,181.256,58.753,182.949,61.619,183.461z    M89.696,214.587c0.429,0.526,0.946,1.001,1.518,1.374c0.57,0.357,1.295,0.599,1.563,0.495c0.013-0.252-0.417-0.671-0.567-0.882   c-1.732-2.612-2.209-2.624-4.969-4.392c-0.173-0.111-0.344-0.225-0.505-0.343c-0.293,0.082-0.582,0.18-0.867,0.292l-0.351,0.202   l-0.196,0.115C86.499,211.958,88.963,213.688,89.696,214.587z M127.068,234.399c-4.116,0.566-10.243-1.134-13.105-4.898   c-1.931-2.538-3.313-5.574-6.399-6.979c-1.596-0.727-4.9-0.939-8.275-0.966c-0.776,0.129-1.767,0.13-2.599,0.046   c-1.923,0.065-4.086,0.152-5.56-0.042c-2.197-0.289-4.844-1.659-8.08-0.604c3.095,0.07,4.01,1.196,8.116,2.194   c2.736,0.665,6.63,0.735,9.072,0.147c2.537-0.61,4.841,0.066,6.757,0.854l2.771,1.894c-4.686-1.95-6.922-2.3-12.073,0.645   c-0.584,0.333-2.063,0.725-3.358,0.387c3.544,2.028,5.169-1.296,8.815-0.81c0,0,1.372-0.035,2.944,0.247   c-1.404,0.169-2.932,0.527-2.932,0.527c-1.556,0.236-4.71,3.213-4.9,6.142c-0.063,0.959,0.011,2.392,0.743,4.139   c-0.958-8.723,6.833-11.479,12.631-7.257l0.844,0.614c-1.645,1.023-3.57,2.478-7.006,2.027c5.234,2.08,5.543-2.232,9.941-0.18   c0.814,0.38,1.64,0.873,2.484,1.272c2.821,1.335,6.67,1.79,10.495,1.784L127.068,234.399z M101.15,220.161l0.631,0.011   c-0.583-1.907-2.008-5.78-2.708-6.715c-1.757-2.345-2.883-5.208-4.871-7.39c-1.117-1.225-2.597-3.199-3.106-5.025   c-0.579,1.663,1.311,4.035,2.013,5.209l-2.523-1.619c-1.8-1.155-8.507-3.086-10.894-3.654l-0.525-0.126   c-5.075-1.231-11.951-3.247-15.95-6.767c2.397,6.401,11.956,8.933,17.536,9.919c-1.149,1.054-2.637,1.568-5.149,1.596   c-0.513,0.005-1.033-0.005-1.527-0.026c3.81,2.094,8.118,0.96,12.208,0.84l3.237-0.159c-0.844,0.773-1.477,1.125-2.6,1.603   c-2.139,0.909-4.769,1.705-5.413,4.181c1.168-0.852,2.42-1.643,3.762-2.182c0.475-0.258,0.958-0.466,1.509-0.48   c0.588-0.137,1.191-0.218,1.812-0.229c2.946-0.051,7.686,0.899,9.136,3.677C99.053,215.364,100.472,218.586,101.15,220.161z    M96.626,220.199l1.136-0.035l-0.834-0.612c-0.081,0.013-1.414-2.455-4.311-1.973l-0.193-0.006   c-0.412,0.071-0.854,0.011-1.303-0.13l-0.208-0.033l-0.216-0.123c-0.96-0.4-1.906-1.101-2.586-1.617   c0.833,1.85,2.709,2.876,4.692,3.132c0.357,0.046,0.606,0.032,1.035,0.096l0.512,0.073c0.72,0.128,1.188,0.677,1.68,1.169   C96.148,220.167,96.361,220.186,96.626,220.199z M206.949,204.999c0.337,0.023,0.67,0.063,1.005,0.119l0.17-0.233   c-0.223-0.198-0.559-0.281-0.919-0.223L206.949,204.999z M160.041,44.557c-2.75,0-3.077,5.668-3.077,7.74   c0,2.105,0.105,8.114,3.077,8.114c2.664,0,2.828-6.377,2.828-8.114C162.869,50.314,162.763,44.557,160.041,44.557z M165.392,52.546   c0,3.402-1.292,8.568-5.675,8.568c-4.015,0-5.276-5.575-5.276-8.568c0-3.151,1.515-8.693,5.601-8.693   C162.303,43.854,165.392,46.507,165.392,52.546z M152.489,47.559c0,1.881-1.762,2.989-3.256,3.668   c2.16,1.04,3.555,2.368,3.555,4.984c0,3.275-2.493,4.902-5.476,4.902c-2.406,0-5.002-1.673-5.002-4.329   c0-2.361,1.715-3.516,3.49-4.533c-1.735-0.902-3.066-1.935-3.066-4.145c0-2.654,2.445-4.254,4.877-4.254   C149.668,43.854,152.489,45.061,152.489,47.559z M147.24,50.292c0.408,0.206,0.811,0.4,1.167,0.6   c1.317-0.829,2.132-1.862,2.132-3.457c0-1.753-1.216-2.878-2.953-2.878s-2.903,1.05-2.903,2.853   C144.684,48.939,146.072,49.7,147.24,50.292z M148.02,53.317c-0.5-0.236-1.011-0.455-1.492-0.687   c-1.441,1.122-2.268,2.403-2.268,4.255c0,1.967,1.281,3.526,3.327,3.526c1.999,0,3.376-1.562,3.376-3.526   C150.963,54.925,149.552,54.042,148.02,53.317z M140.109,47.559c0,1.881-1.761,2.989-3.256,3.668   c2.16,1.04,3.555,2.368,3.555,4.984c0,3.275-2.492,4.902-5.476,4.902c-2.406,0-5.002-1.673-5.002-4.329   c0-2.361,1.715-3.516,3.49-4.533c-1.735-0.902-3.066-1.935-3.066-4.145c0-2.654,2.445-4.254,4.877-4.254   C137.288,43.854,140.109,45.061,140.109,47.559z M134.86,50.292c0.408,0.206,0.812,0.4,1.167,0.6   c1.317-0.829,2.132-1.862,2.132-3.457c0-1.753-1.216-2.878-2.953-2.878c-1.736,0-2.903,1.05-2.903,2.853   C132.304,48.939,133.692,49.7,134.86,50.292z M135.64,53.317c-0.5-0.236-1.011-0.455-1.492-0.687   c-1.442,1.122-2.269,2.403-2.269,4.255c0,1.967,1.281,3.526,3.327,3.526c2,0,3.376-1.562,3.376-3.526   C138.583,54.925,137.172,54.042,135.64,53.317z M127.719,60.194v0.72h-6.862v-0.72c0.482-0.035,1.44-0.063,1.883-0.254   c0.304-0.131,0.436-0.351,0.436-0.861v-9.95c0-0.804-0.052-1.246-0.186-1.49c-0.084-0.151-0.26-0.243-0.627-0.308   c-0.546-0.096-1.132-0.118-1.681-0.167v-0.723c1.532-0.303,2.622-0.902,3.69-1.981c0.198-0.201,0.389-0.412,0.592-0.607h0.584   V59.08c0,0.819,0.188,0.924,0.92,1.016C126.883,60.146,127.303,60.167,127.719,60.194z M171.056,192.187   c-0.056,0.016-0.138,0.477-0.138,0.676c0,0.139,0.023,0.232,0.07,0.278c0.047,0.047,0.189,0.127,0.605,0.127l5.132,0.405   l-5.132,0.405c-0.556,0-0.93-0.116-1.179-0.364c-0.207-0.207-0.307-0.485-0.307-0.852   C170.107,192.186,170.763,192.26,171.056,192.187z M109.885,192.187c-0.056,0.016-0.138,0.477-0.138,0.676   c0,0.139,0.023,0.232,0.07,0.278c0.047,0.047,0.189,0.127,0.605,0.127l5.132,0.405l-5.132,0.405c-0.556,0-0.93-0.116-1.179-0.364   c-0.207-0.207-0.307-0.485-0.307-0.852C108.937,192.186,109.592,192.26,109.885,192.187z M139.375,207.014   c-0.078,0.022-0.192,0.662-0.192,0.939c0,0.192,0.032,0.322,0.097,0.386c0.066,0.066,0.263,0.176,0.841,0.176l7.128,0.563   l-7.128,0.563c-0.772,0-1.292-0.161-1.637-0.506c-0.287-0.287-0.426-0.673-0.426-1.182   C138.057,207.012,138.967,207.116,139.375,207.014z M169.164,159.772c-0.117,0.096-0.069,0.912-0.069,1.217   c0,0.172,0.068,0.26,0.119,0.311c0.111,0.111,0.41,0.296,1.164,0.296l8.374,0.608l-8.374,0.608c-0.91,0-1.59-0.22-2.023-0.653   c-0.311-0.311-0.476-0.716-0.476-1.17C167.879,160.048,169.071,159.846,169.164,159.772z M107.992,159.772   c-0.117,0.096-0.069,0.912-0.069,1.217c0,0.172,0.068,0.26,0.12,0.311c0.11,0.111,0.409,0.296,1.164,0.296l8.374,0.608   l-8.374,0.608c-0.91,0-1.59-0.22-2.023-0.653c-0.311-0.311-0.475-0.716-0.475-1.17C106.708,160.048,107.9,159.846,107.992,159.772z    M136.746,161.993c-0.162,0.133-0.096,1.266-0.096,1.69c0,0.239,0.095,0.361,0.166,0.432c0.154,0.154,0.568,0.412,1.616,0.412   l11.63,0.844l-11.63,0.844c-1.263,0-2.208-0.305-2.81-0.907c-0.432-0.432-0.66-0.994-0.66-1.625   C134.962,162.376,136.617,162.095,136.746,161.993z M167.216,158.265c-1.459-1.371-1.515-2.813-1.515-4.845   c0-1.874,0.733-3.248,1.769-4.696l0.258-0.37c0.814-1.247-0.703-2.736-1.358-3.615c1.743,0.41,3.731,0.811,5.163,1.986   c0.812-1.338,0.686-2.475-0.29-5.604c2.909,1.454,5.718,3.738,6.921,6.847c0.222-0.145,2.482-1.456,3.289-1.456h1.579   c-3.925,4.35-1.707,4.195-2.057,8.837c-0.072,0.956-0.311,1.927-0.884,2.723c1.083,0.573,1.794,1.79,1.794,3.052   c0,1.215-0.658,2.386-1.672,2.984c-0.333,1.063-1.091,1.938-2.075,2.428l-1.075,23.388c1.439,0.279,2.525,1.546,2.525,3.067   c0,1.583-1.227,2.947-2.809,3.108l-0.433,9.426c-0.016,1.367-1.073,2.493-2.524,2.493c-1.395,0-2.525-1.13-2.525-2.525   l-0.456-9.396c-1.566-0.168-2.786-1.495-2.786-3.106c0-1.49,1.066-2.762,2.488-3.059l-1.134-23.446   c-0.929-0.493-1.645-1.336-1.971-2.353c-1.014-0.568-1.68-1.703-1.68-3.009C165.759,159.956,166.327,158.88,167.216,158.265z    M178.439,164.519h-9.234c0.488,0.63,1.252,1.036,2.11,1.036h5.015C177.187,165.554,177.951,165.148,178.439,164.519z    M178.493,157.729c2.387-1.827-0.096-6.078,1.234-9.081c-0.388,0.229-0.772,0.469-1.144,0.726c0.127,0.603,0.195,1.233,0.195,1.89   c0,2.168-1.144,4.603-2.564,6.465H178.493z M168.095,157.155c-1.292-2.55-0.698-5.384,1.301-7.756   c0.502-0.596,0.932-1.089,1.29-1.525c-0.419-0.34-0.889-0.622-1.376-0.849c0.121,0.724-0.006,1.48-0.407,2.096l-0.292,0.419   c-0.855,1.196-1.506,2.329-1.506,3.88C167.105,154.988,167.056,156.098,168.095,157.155z M167.163,161.124   c0,1.199,0.839,1.991,1.765,1.991h9.789c0.908,0,1.765-0.884,1.765-1.991s-0.857-1.991-1.765-1.991h-9.789   C168.011,159.133,167.163,159.97,167.163,161.124z M169.459,192.99c0,0.951,0.771,1.721,1.721,1.721h5.284   c0.944,0,1.721-0.798,1.721-1.721c0-0.95-0.771-1.721-1.721-1.721h-5.284C170.232,191.269,169.459,192.054,169.459,192.99z    M172.248,196.114l0.452,9.36c0,0.62,0.503,1.139,1.122,1.139c0.66,0,1.122-0.505,1.122-1.138l0.43-9.361h-2.546l0.252,9.31   l-0.613-9.31H172.248z M170.836,166.93l1.109,22.935h3.715l1.053-22.925c-1.309,0.123-2.666,0.018-3.979,0.018l-0.331,22.529   l-0.862-22.529L170.836,166.93z M170.524,157.729c-0.725-1.5-0.377-4.318,0.934-5.925c1.206-1.478,1.756-3.241,1.756-3.241   s-0.248,2.082-0.81,3.241c-0.638,1.314-1.867,4.02-0.686,5.925h1.244c-0.451-0.664-0.479-1.302-0.479-2.143   c0-1.701,1.339-3.79,1.339-3.79s-1.611,3.939,0.201,5.933h0.353c0.82-0.925,2.999-3.65,2.999-6.465   c0-3.118-2.191-5.839-3.981-7.283c0.474,5.199-4.282,5.685-4.521,9.622c-0.106,1.759,0.243,2.925,1.291,4.126H170.524z    M145.656,212.195h-3.829l0.356,13.203l-0.868-13.203h-0.573l0.642,13.28c0,1.011,0.82,1.847,1.831,1.847   c0.922,0,1.831-0.854,1.831-1.847L145.656,212.195z M146.036,204.063l1.484-32.306c-1.885,0.288-3.913,0.063-5.812,0.063   l-0.462,31.444l-1.203-31.444l-1.257-0.083l1.563,32.326H146.036z M142.288,159.547c-0.649-0.89-0.91-2.291-0.91-3.369   c0-2.282,0.967-4.044,1.838-5.264c-0.693,1.763-1.942,6.442,0.695,8.632h0.196c1.091-1.214,4.316-5.149,4.316-9.252   c0-4.73-3.52-8.79-6.127-10.709l0.072,0.568c0.58,5.648-3.48,7.089-5.807,11.347c-1.164,2.131-1.452,4.6,1.473,8.046h0.905   c-1.462-2.232-0.81-4.941-0.045-6.591c1.557-3.357,2.862-3.467,3.478-6.532c0.139,1.515-0.188,2.72-1.125,4.502   c-0.996,1.892-2.395,5.854-0.494,8.621H142.288z M136.544,143.936c0.588,2.103-0.47,3.502-1.357,5.282   c-1.708,3.426-3.063,7.457,0.841,10.262c0.049,0.046,0.124,0.061,0.209,0.066c-3.516-4.742-1.791-8.16,1.79-12.359   c0.49-0.575,0.918-1.093,1.285-1.575C138.506,144.892,137.545,144.334,136.544,143.936z M145.975,159.547h3.815   c1.364-1.045,3.319-4.384,1.322-8.773c-0.797-1.753-0.325-3.415,0.834-4.787c-0.826,0.29-1.832,0.88-2.442,1.538   c0.209,0.889,0.322,1.813,0.322,2.77C149.826,153.417,148.068,156.961,145.975,159.547z M150.141,168.429l-13.723,0.002   c0.56,1.186,1.845,1.985,3.315,1.985h6.964C148.168,170.416,149.454,169.617,150.141,168.429z M133.694,163.989   c0,1.737,1.276,3.038,2.724,3.038h13.595c1.447,0,2.724-1.304,2.724-3.038c0-1.737-1.276-3.038-2.724-3.038h-13.595   C134.976,160.951,133.694,162.294,133.694,163.989z M136.883,208.129c0,1.471,1.192,2.663,2.663,2.663h7.339   c1.458,0,2.663-1.277,2.663-2.663c0-1.471-1.192-2.663-2.663-2.663h-7.339C138.09,205.466,136.883,206.756,136.883,208.129z    M148.944,171.337l-1.505,32.762c1.984,0.27,3.513,1.971,3.513,4.029c0,2.079-1.714,3.965-3.89,4.063l-0.612,13.333   c-0.018,1.791-1.585,3.202-3.233,3.202c-1.787,0-3.234-1.448-3.234-3.234l-0.644-13.302c-2.149-0.108-3.858-1.885-3.858-4.061   c0-1.927,1.495-3.714,3.467-4.021l-1.588-32.84c-1.334-0.658-2.356-1.852-2.784-3.301c-1.372-0.737-2.284-2.27-2.284-3.978   c0-1.641,0.878-3.165,2.21-3.929c-3.713-3.239-2.484-7.629-0.57-11.469c1.889-3.79,1.966-3.725-0.381-6.918   c2.267,0.533,4.798,1.146,6.579,2.759c1.301-2.142,1.189-3.864-0.076-7.71c3.818,1.909,7.46,5.158,9.001,9.315   c2.243-1.88,4.253-1.812,7.121-1.686c-1.754,1.268-5.015,3.139-3.786,5.841c1.931,4.243,0.674,7.792-0.896,9.647   c1.571,0.647,2.647,2.295,2.647,4.15c0,1.706-0.912,3.239-2.283,3.978c-0.444,1.501-1.524,2.729-2.929,3.37L148.944,171.337z    M114.202,196.114h-2.546l0.251,9.31l-0.612-9.31h-0.219l0.453,9.36c0,0.62,0.502,1.139,1.122,1.139   c0.66,0,1.122-0.505,1.122-1.138L114.202,196.114z M114.489,189.865l1.054-22.925c-1.309,0.123-2.666,0.018-3.979,0.018   l-0.331,22.529l-0.862-22.529l-0.706-0.028l1.109,22.935H114.489z M108.139,147.025c0.121,0.724-0.005,1.48-0.407,2.096   l-0.292,0.419c-0.855,1.196-1.506,2.329-1.506,3.88c0,1.569-0.049,2.678,0.99,3.735c-1.293-2.55-0.698-5.384,1.301-7.756   c0.502-0.596,0.932-1.089,1.29-1.525C109.097,147.533,108.627,147.251,108.139,147.025z M117.268,164.519h-9.234   c0.488,0.63,1.252,1.036,2.11,1.036h5.014C116.016,165.554,116.78,165.148,117.268,164.519z M117.322,157.729   c2.387-1.827-0.096-6.078,1.234-9.081c-0.389,0.228-0.772,0.469-1.144,0.726c0.127,0.603,0.195,1.233,0.195,1.89   c0,2.168-1.144,4.603-2.565,6.465H117.322z M111.79,157.729c-0.451-0.664-0.479-1.302-0.479-2.143c0-1.701,1.339-3.79,1.339-3.79   s-1.611,3.939,0.201,5.933h0.353c0.82-0.926,2.999-3.65,2.999-6.465c0-3.118-2.191-5.839-3.981-7.283   c0.475,5.199-4.282,5.685-4.521,9.622c-0.107,1.759,0.243,2.925,1.29,4.126h0.362c-0.725-1.5-0.377-4.318,0.934-5.925   c1.206-1.478,1.756-3.241,1.756-3.241s-0.248,2.082-0.811,3.241c-0.638,1.314-1.866,4.02-0.686,5.925H111.79z M105.992,161.124   c0,1.199,0.839,1.991,1.765,1.991h9.789c0.908,0,1.765-0.884,1.765-1.991s-0.857-1.991-1.765-1.991h-9.789   C106.839,159.133,105.992,159.97,105.992,161.124z M108.288,192.99c0,0.951,0.771,1.721,1.721,1.721h5.285   c0.944,0,1.721-0.798,1.721-1.721c0-0.95-0.771-1.721-1.721-1.721h-5.285C109.062,191.269,108.288,192.054,108.288,192.99z    M116.966,166.535l-1.075,23.388c1.439,0.279,2.525,1.546,2.525,3.067c0,1.583-1.227,2.947-2.809,3.108l-0.433,9.426   c-0.016,1.367-1.073,2.493-2.524,2.493c-1.395,0-2.525-1.13-2.525-2.525l-0.455-9.396c-1.566-0.168-2.787-1.495-2.787-3.106   c0-1.49,1.066-2.762,2.488-3.059l-1.134-23.446c-0.929-0.493-1.644-1.336-1.971-2.353c-1.013-0.567-1.68-1.703-1.68-3.009   c0-1.168,0.568-2.244,1.457-2.859c-1.459-1.371-1.514-2.813-1.514-4.845c0-1.874,0.733-3.248,1.768-4.696l0.258-0.37   c0.814-1.247-0.703-2.736-1.357-3.615c1.742,0.41,3.731,0.811,5.163,1.986c0.812-1.338,0.686-2.475-0.291-5.604   c2.909,1.454,5.718,3.738,6.922,6.847c0.222-0.145,0.486-0.313,0.771-0.481c0.68-0.401,1.711-0.975,2.518-0.975h1.579   c-3.925,4.351-1.707,4.195-2.057,8.837c-0.072,0.956-0.311,1.927-0.884,2.723c1.083,0.573,1.794,1.79,1.794,3.052   c0,1.215-0.658,2.386-1.672,2.984C118.708,165.171,117.95,166.046,116.966,166.535z"/>
	<path fill="#981B1E" d="M61.949,211.53l-2.76,2.623C62.46,217.271,64.601,215.477,61.949,211.53z M244.507,236.124l-1.046-0.396   l0.952-0.259c0.489-0.77,1.559-1.4,2.15-1.987C246.202,235.103,246.225,235.672,244.507,236.124z M241.318,233.725l0.935-0.3   c0.034-0.228,1.98-1.879,2.127-2.025c-0.316,1.595-0.29,2.184-1.982,2.658L241.318,233.725z M239.231,231.384l0.917-0.342   c0.107-0.285,1.893-1.854,2.105-2.063C241.916,230.997,241.604,231.963,239.231,231.384z M237.258,228.93l0.9-0.383   c0.446-0.734,1.486-1.515,2.083-2.103C239.961,228.506,239.641,229.363,237.258,228.93z M235.228,226.533   c1.24-0.597,1.955-1.596,2.943-2.565C237.953,226.086,237.602,226.821,235.228,226.533z M232.916,224.361   c1.26-0.679,1.877-1.642,2.903-2.646C235.671,223.886,235.277,224.507,232.916,224.361z M230.492,222.358   c1.272-0.762,1.802-1.688,2.863-2.725C233.282,221.848,232.821,222.379,230.492,222.358z M230.948,217.549   c0.008,2.29-0.549,2.711-2.824,2.805C229.358,219.539,229.905,218.583,230.948,217.549z M246.032,237.38   c0.196-0.367,2.035-1.501,2.348-1.752c-0.563,1.677-0.576,2.146-2.419,2.428l-0.901-0.518L246.032,237.38z M115.983,29.245   c-9.561,2.741-14.72-13.996-4.827-16.833c4.189-1.201,8.292,1.414,9.701,6.327C122.254,23.608,120.135,28.054,115.983,29.245z    M111.57,13.855c-3.184,0.913-3.985,4.828-2.962,8.396c1.041,3.631,3.831,6.449,6.961,5.551   C122.186,25.905,118.102,11.982,111.57,13.855z M67.878,55.271c-6.909,7.154-19.746-4.76-12.596-12.164   c3.027-3.134,7.888-2.922,11.564,0.628C70.491,47.254,70.878,52.165,67.878,55.271z M56.362,44.15   c-2.301,2.383-1.038,6.174,1.633,8.752c2.717,2.625,6.542,3.669,8.804,1.327C71.58,49.278,61.081,39.263,56.362,44.15z    M259.769,99.134l4.29-4.341l-6.097,0.553L259.769,99.134z M252.425,94.382l14.737-1.281l0.605,1.27l-10.094,10.178   c-1.213,1.248-1.417,1.725-0.742,3.364l-0.979,0.467l-3.04-6.373l0.987-0.471c0.271,0.567,0.934,1.944,1.782,1.54   c0.353-0.168,0.658-0.482,0.935-0.752l2.032-2.053l-2.276-4.773l-2.845,0.251c-1.814,0.164-1.934,0.952-1.126,2.645l-0.987,0.471   l-2.654-5.565l0.987-0.471C250.32,94.028,251.12,94.495,252.425,94.382z M261.515,153.322c0.607-9.927,18.105-9.204,17.477,1.069   c-0.266,4.35-4.1,7.345-9.201,7.033C264.735,161.115,261.251,157.633,261.515,153.322z M277.494,154.3   c0.202-3.307-3.22-5.368-6.925-5.595c-3.771-0.23-7.357,1.458-7.556,4.709C262.593,160.284,277.08,161.082,277.494,154.3z    M246.505,216.6l5.83,1.802l-3.305-5.152L246.505,216.6z M247.329,207.893l7.94,12.479l-0.847,1.124l-13.687-4.254   c-1.667-0.5-2.184-0.461-3.326,0.895l-0.866-0.653l4.249-5.638l0.873,0.658c-0.378,0.502-1.293,1.726-0.543,2.292   c0.312,0.235,0.731,0.361,1.099,0.482l2.758,0.854l3.182-4.223l-1.536-2.407c-0.983-1.533-1.737-1.275-2.866,0.223l-0.873-0.658   l3.71-4.923l0.873,0.658C246.67,205.862,246.626,206.787,247.329,207.893z M262.11,82.991l0.604,0.817l-4.005,2.964l-0.615-0.832   c1.772-1.792,1.669-4.282,0.256-6.193c-4.589-6.123-16.217,2.171-11.687,8.293c1.495,2.021,3.62,2.771,6.058,1.953L253.466,91   c-7.649,3.642-14.17-7.657-5.97-13.726c4.207-3.113,9.023-2.524,11.818,1.254c1.034,1.397,1.368,2.394,1.704,3.807   c0.071,0.32,0.128,0.568,0.329,0.84C261.522,83.413,261.972,83.094,262.11,82.991z M257.051,109.435   c0.322,0.996,0.761,1.503,1.811,1.212l11.243-3.118c1.049-0.291,1.165-0.953,0.927-1.972l-0.157-0.564l1.054-0.292l1.816,6.549   l-1.054,0.292l-0.157-0.565c-0.321-0.996-0.761-1.504-1.811-1.212l-12.219,3.389l1.061,3.824c0.591,2.132,2.407,1.464,3.935,1.16   l0.269,0.968l-4.801,1.332l-3.126-11.275l1.053-0.292L257.051,109.435z M274.772,119.502l1.075-0.199l1.238,6.683l-1.075,0.199   l-0.106-0.577c-0.233-1.02-0.627-1.564-1.698-1.366l-11.472,2.126c-1.071,0.198-1.243,0.848-1.096,1.883l0.107,0.577l-1.075,0.199   l-1.238-6.683l1.075-0.199l0.107,0.577c0.233,1.02,0.627,1.564,1.698,1.366l11.472-2.126c1.071-0.198,1.243-0.848,1.096-1.883   L274.772,119.502z M262.171,132.46c0.178,1.388,0.408,1.822,1.862,1.682l11.074-1.066c1.454-0.14,1.597-0.61,1.506-2.006   l-0.061-0.632l1.088-0.105l1.249,12.973l-4.87,0.469l-0.104-1.077c2.353-0.411,3.366-0.433,3.109-3.102l-0.396-4.115l-5.844,0.563   l0.162,1.684c0.182,1.888,1.227,1.799,2.777,1.711l0.104,1.082l-6.67,0.642l-0.104-1.082c1.54-0.21,2.582-0.322,2.4-2.209   l-0.162-1.684l-5.286,0.509c-1.072,0.103-1.305,0.8-1.236,1.98l0.061,0.631l-1.088,0.105l-0.72-7.481l1.088-0.105L262.171,132.46z    M256.074,193.5l9.473,3.354c1.016,0.36,1.521-0.174,1.958-1.272l0.212-0.598l1.03,0.365l-2.161,6.104l-1.031-0.365l0.212-0.598   c0.346-1.108,0.309-1.856-0.977-2.312l-13.112-4.644l0.465-1.313l15.278-5.514l-9.471-3.354c-1.016-0.359-1.521,0.174-1.958,1.273   l-0.212,0.598l-1.031-0.365l2.222-6.274l1.03,0.365l-0.212,0.598c-0.402,1.267-0.317,1.854,0.977,2.312l10.742,3.804   c1.016,0.36,1.521-0.173,1.958-1.272l0.212-0.598l1.031,0.365l-1.333,3.764L256.074,193.5z M264.143,204.601l0.952,0.538   l-3.346,5.915l-0.952-0.539l0.289-0.51c0.477-0.932,0.525-1.602-0.423-2.138l-10.155-5.746c-0.948-0.537-1.497-0.149-2.05,0.738   l-0.289,0.51l-0.952-0.538l3.347-5.915l0.952,0.539l-0.289,0.51c-0.477,0.931-0.525,1.602,0.423,2.138l10.155,5.746   c0.948,0.536,1.497,0.149,2.05-0.738L264.143,204.601z M95.056,36.331l-0.936,0.397l-1.947-4.586l0.912-0.387   c2.829,4.337,9.794,1.284,8.112-2.678c-0.682-1.605-2.21-1.624-3.657-1.489c-2.92,0.271-6.362,1.323-7.918-2.342   c-1.294-3.049,0.597-5.441,2.967-6.447c1.239-0.526,2.34-0.56,3.632-0.597c0.265-0.008,0.441-0.027,0.55-0.073   c0.371-0.157,0.372-0.48,0.249-0.769l0.936-0.397l1.947,4.587l-0.929,0.395c-1.169-2.461-3.091-2.913-5.423-1.923   c-1.438,0.61-2.78,1.994-2.014,3.798c0.669,1.576,2.217,1.553,3.626,1.418c3.048-0.292,6.401-1.232,8.011,2.559   c1.374,3.238-0.7,5.829-3.237,6.906c-1.368,0.581-2.732,0.525-4.166,0.575c-0.338,0.012-0.584,0.041-0.74,0.107   C94.72,35.515,94.968,36.124,95.056,36.331z M132.5,26.479c-3.559,0.311-6.326-1.792-6.692-5.979l-0.702-8.02   c-0.095-1.085-0.725-1.319-1.77-1.271l-0.584,0.051l-0.095-1.089l6.771-0.592l0.095,1.089l-0.584,0.051   c-1.037,0.135-1.617,0.474-1.522,1.559l0.739,8.448c0.245,2.797,2.02,4.269,4.664,4.037c2.344-0.205,4.001-1.913,3.678-5.607   l-0.667-7.614c-0.095-1.085-0.725-1.319-1.77-1.271l-0.584,0.051l-0.096-1.089l6-0.525l0.096,1.089l-0.584,0.051   c-1.037,0.135-1.617,0.475-1.522,1.56l0.668,7.637C138.426,23.464,136.397,26.138,132.5,26.479z M142.9,13.338l0.161-4.61   l6.96,0.243l6.96,0.243l-0.161,4.61l-0.904-0.032c0.108-3.096-1.01-3.475-2.773-3.536l-2.057-0.072l-0.448,12.836   c-0.043,1.22,0.76,1.565,1.956,1.652l0.475,0.016l-0.027,0.769l-7.187-0.251l0.027-0.769l0.475,0.017   c1.199-0.003,2.024-0.291,2.066-1.512l0.448-12.836l-2.057-0.072c-1.763-0.062-2.904,0.238-3.013,3.334L142.9,13.338z    M165.161,19.109l-1.044,5.372c-0.233,1.199,0.506,1.665,1.674,1.938l0.466,0.09l-0.146,0.755l-7.059-1.372l0.146-0.755   l0.466,0.091c1.185,0.184,2.044,0.029,2.277-1.17l2.227-11.454c0.233-1.198-0.506-1.665-1.673-1.938l-0.466-0.091l0.146-0.755   l7.059,1.373l-0.146,0.754l-0.466-0.09c-1.185-0.185-2.044-0.029-2.277,1.169l-0.958,4.928l8.457,1.644l0.958-4.928   c0.233-1.199-0.506-1.665-1.673-1.938l-0.466-0.09l0.147-0.755l7.059,1.372l-0.147,0.755l-0.466-0.091   c-1.185-0.184-2.045-0.029-2.278,1.17l-2.226,11.454c-0.233,1.198,0.505,1.665,1.673,1.938l0.466,0.091l-0.146,0.755l-7.059-1.372   l0.146-0.755l0.466,0.091c1.185,0.184,2.044,0.029,2.278-1.17l1.044-5.372L165.161,19.109z M180.197,29.366   c1.17,0.403,1.62,0.389,2.148-0.987l3.987-10.387c0.528-1.377,0.204-1.688-0.936-2.171l-0.548-0.21l0.392-1.021l10.98,4.215   l-1.753,4.567l-0.939-0.36c0.67-2.2,1.103-3.21-1.341-4.148l-3.23-1.24l-2.104,5.481c2.355,0.904,2.822,1.46,3.978-1.258   l0.944,0.362l-2.402,6.256l-0.944-0.362c0.96-2.794,0.24-2.693-2.114-3.597l-2.267,5.903l4.371,1.678   c2.081,0.799,2.762-1.053,3.379-2.481l0.943,0.362l-1.802,4.694l-11.684-4.485l0.392-1.021L180.197,29.366z M222.199,51.148   l6.325-7.811c0.678-0.837,0.344-1.492-0.546-2.27l-0.493-0.399l0.688-0.85l5.032,4.075l-0.688,0.85l-0.493-0.399   c-0.929-0.695-1.647-0.911-2.505,0.149l-8.754,10.811l-1.082-0.876l-0.098-16.244l-6.323,7.809   c-0.678,0.837-0.344,1.492,0.546,2.271l0.493,0.399l-0.688,0.85l-5.173-4.188l0.688-0.85l0.493,0.399   c1.06,0.802,1.641,0.918,2.505-0.149l7.172-8.857c0.678-0.837,0.344-1.492-0.546-2.271l-0.493-0.399l0.688-0.85l3.103,2.513   L222.199,51.148z M73.726,47.444c1.106-0.857,1.363-1.276,0.504-2.458l-6.539-9c-0.859-1.182-1.336-1.066-2.494-0.28l-0.513,0.373   l-0.643-0.885l10.543-7.661l2.876,3.958l-0.875,0.636c-1.547-1.819-2.082-2.681-4.25-1.104l-3.344,2.43l3.451,4.75l1.369-0.995   c1.534-1.115,0.928-1.97,0.065-3.262l0.879-0.639l3.939,5.422l-0.879,0.639c-0.962-1.22-1.588-2.061-3.122-0.946l-1.369,0.995   l3.121,4.296c0.633,0.872,1.352,0.718,2.334,0.06l0.513-0.373l0.643,0.885l-6.08,4.417l-0.643-0.885L73.726,47.444z    M207.737,26.276l-2.547-1.354l-2.694,5.066l1.86,0.989c1.824,0.97,3.819,1.891,5.15-0.611   C210.559,28.387,209.341,27.129,207.737,26.276z M195.177,35.417c1.088,0.531,1.521,0.571,2.197-0.701l5.119-9.627   c0.676-1.271,0.4-1.608-0.648-2.213l-0.515-0.274l0.51-0.96l6.064,3.225c2.326,1.237,5.429,3.145,3.533,6.711   c-1.023,1.924-3.067,2.75-4.89,2.124l-1.188-0.447l0.092,4.936c-0.062,1.842,0.637,2.941,1.682,3.775l0.371,0.296   c0.54,0.409,1.048,0.462,1.704,0.564c0,0-0.415,0.306-0.583,0.39c-0.954,0.477-2.015,0.373-2.929-0.199   c-1.68-1.053-1.883-1.707-2.048-3.841c0,0-0.009-1.618-0.037-3.284c-0.026-1.58-0.07-3.145-0.128-3.5l-1.781-0.945l-2.435,4.58   c-0.498,0.937-0.11,1.46,0.773,1.979l0.514,0.273l-0.511,0.96l-5.895-3.135l0.511-0.96L195.177,35.417z M274.46,172.376l0.55-2.832   l-5.632-1.095l-0.402,2.068c-0.395,2.028-0.692,4.206,2.09,4.747C273.267,175.692,274.114,174.16,274.46,172.376z M262.046,163.038   c-0.189,1.195-0.101,1.621,1.313,1.896l10.703,2.081c1.414,0.274,1.655-0.087,1.927-1.267l0.111-0.572l1.068,0.208l-1.311,6.742   c-0.502,2.586-1.42,6.111-5.385,5.341c-2.139-0.416-3.527-2.129-3.46-4.056l0.08-1.266l-4.693,1.531   c-1.779,0.48-2.626,1.469-3.119,2.712l-0.174,0.442c-0.234,0.635-0.135,1.138-0.042,1.794c0,0-0.415-0.307-0.543-0.443   c-0.735-0.772-0.946-1.818-0.666-2.859c0.516-1.915,1.082-2.3,3.074-3.082c0,0,1.544-0.481,3.13-0.995   c1.503-0.487,2.987-0.986,3.31-1.146l0.382-1.979l-5.091-0.99c-1.042-0.202-1.429,0.322-1.667,1.318l-0.111,0.572l-1.068-0.208   l1.274-6.554l1.067,0.208L262.046,163.038z M64.503,76.201c-1.128-0.704-2.353-1.449-3.149-1.93   c-0.403,1.011-0.595,1.989-0.367,2.563l0.414,0.442c0.475,0.203,1.312,0.011,2.644-0.809L64.503,76.201z M52.832,85.204   c1.011,0.632,2.367,1.529,3.577,2.367c0.125-0.844,0.352-1.65,0.526-2.196c0.815-2.554-1.637-3.242-2.91-1.986   C53.621,83.99,53.224,84.595,52.832,85.204z M47.68,73.863c0.417-1.206,1.278-2.367,2.104-3.317l-1.266-0.884   c-1.155,1.683-1.728,1.736-3.268,2.709c0.417-1.206,1.278-2.367,2.104-3.317l-1.169-0.873c-1.116,1.763-1.666,1.823-3.197,2.866   c0.425-1.382,1.585-2.31,2.076-3.554l-1.228-0.742c-0.85,1.526-1.581,1.801-2.848,2.801c0.285-1.226,1.007-2.456,1.724-3.47   l-1.188-0.703c-0.227,1.611-1.208,3.257-2.546,4.188c9.471,8.038,21.478,8.267,19.572,19.404c2.589-0.534,9.829-8.886,8.33-11.228   c-1.587,0.029-0.129,4.241-4.956,6.131c1.255-1.647,2.515-3.194,2.817-5.331l-1.637,0.516c-1.228,2.258-1.637,2.639-3.861,3.371   l2.231-3.108l-1.755-0.335c-0.754,1.019-1.428,1.29-2.596,1.674l1.771-2.55c-0.039-0.473-0.731-0.979-1.056-1.245   c-0.783,1.011-1.827,1.425-2.877,2.089c0.375-1.087,1.129-2.157,1.903-2.994l-1.135-0.994c-0.799,1.077-1.829,1.488-2.925,2.181   c0.379-1.096,1.141-2.172,1.918-3.017l-1.374-1.08c-0.925,1.289-1.807,1.597-3.071,2.396c0.4-1.156,1.217-2.278,2.022-3.18   l-1.412-1.009C49.82,72.787,49.119,72.955,47.68,73.863z M38.911,55.685l1.409-0.735c-0.642,0.79-0.652,1.735-0.692,2.689   C39.457,61.704,38.047,57.341,38.911,55.685z M57.692,72.069c-0.479-2.409,0.221-3.571,2.642-4.085   C59.239,69.177,58.621,70.746,57.692,72.069z M57.879,66.39c-1.095,1.193-1.712,2.762-2.642,4.085   C54.759,68.066,55.459,66.904,57.879,66.39z M55.426,64.796c-1.095,1.193-1.712,2.762-2.642,4.085   C52.306,66.473,53.005,65.31,55.426,64.796z M52.972,63.202c-1.095,1.193-1.712,2.762-2.642,4.084   C49.852,64.878,50.551,63.716,52.972,63.202z M50.518,61.608c-1.095,1.193-1.712,2.762-2.642,4.085   C47.398,63.285,48.098,62.122,50.518,61.608z M47.996,59.958c-1.053,1.231-1.615,2.82-2.498,4.174   C44.936,61.742,45.595,60.556,47.996,59.958z M45.325,58.208c-0.918,1.334-1.312,2.973-2.047,4.413   C42.469,60.303,43,59.054,45.325,58.208z M41.146,61.099c-1.124-2.183-0.771-3.493,1.413-4.655   C41.836,57.894,41.675,59.571,41.146,61.099z M47.917,230.426c0.985,0.627,1.426,2.13,1.172,3.455   c-0.613-1.191-1.406-1.923-2.21-2.458l-1.447,1.403c0.228,0.142,0.441,0.344,0.641,0.619c0.443,0.612,0.881,1.477,1.109,2.365   c2.314-1.656,4.523-3.683,6.651-5.404c3.055-2.472,6.242-6.043,9.104-9.182c-0.375-1.2-0.978-2.44-1.833-1.876   c0.065-0.072,0.126-0.151,0.185-0.237l-0.734,0.502c0.388,0.672,0.578,1.563,0.637,2.439c-0.342-0.636-0.902-1.256-1.526-1.802   c-0.433,0.317-0.872,0.648-1.314,0.991c0.551,0.701,0.799,1.771,0.823,2.806c-0.41-0.77-1.074-1.465-1.788-2.045l-1.208,0.985   c0.697,0.69,1.002,1.904,0.979,3.054c-0.469-0.886-1.205-1.625-1.977-2.215l-1.14,0.982c0.821,0.664,1.178,1.993,1.1,3.227   c-0.519-0.99-1.304-1.748-2.112-2.335l-1.09,0.979c0.919,0.634,1.323,2.055,1.185,3.35c-0.563-1.082-1.377-1.844-2.205-2.418   l-1.049,0.973c0.993,0.609,1.437,2.104,1.237,3.44c-0.602-1.163-1.429-1.917-2.264-2.476L47.917,230.426z M62.407,72.274   l2.17,1.322c1.162,0.715,2.464,1.529,3.29,2.09l0.452,0.317c0.964,1.097,0.992,3.049,0.036,5.439   c-1.268,3.169-5.771,9.827-9.847,9.866c-0.383,0.003-0.704-0.055-0.973-0.164c-0.343-0.167-0.514-0.302-0.653-0.464   c-1.271-0.957-3.669-2.59-5.252-3.575c-10.611,17.159-16.914,37.064-16.497,58.752c0.479,24.957,8.111,47.543,21.825,65.572   c0.248,0.37,0.494,0.714,0.738,1.033l4.302-4.088c1.041-1.252,3.295-1.766,5.47-0.247c1.9,1.328,5.693,5.534,5.693,10.221   c0,2.412-0.44,5.808-2.979,7.277c-0.835,0.854-5.246,6.005-8.8,11.082c-2.219,3.169-3.975,6.604-5.726,10.041   c-2.182,4.282-3.956,6.203-9.166,4.681c-3.144-0.918-5.512-3.048-6.073-6.162c-0.646-3.595,0.777-5.933,4.377-7.931l0.362-0.206   c0.008-0.37-0.694-2.1-0.895-2.413c-4.47,3.859-10.746,3.15-14.225-0.744C-8.041,185.31-9.683,117.188,23.789,65.801   c3.209-4.927,8.381-3.144,11.608,0.215c0.437,0.454,0.834,0.985,1.226,1.352l0.291,0.238c0.58,0.398,1.167,0.305,1.873-1.065   c0.151-0.293,0.658-1.503,0.52-1.918c-4.676-3.48-7.187-8.832-3.437-13.433C61.583,19.641,98.45,0,142.821,0   c42.548,0,81.104,17.783,106.902,49.315c3.337,4.488-0.862,6.112-2.344,9.022l0.106,0.168l-0.263,0.17   c-0.202,0.483-0.324,1.004-0.324,1.579c0.001,1.807,0.393,2.68,2.074,3.604c0.503,0.276,0.828,0.479,1.343,0.414   c3.213-2.692,8.729-4.688,11.746-0.471c15.438,23.702,25.827,52.329,25.239,82.95c-0.635,33.06-13.341,64.483-31.557,87.764   c-1.474,1.67-2.559,3.502-4.211,5.079c-5.076,3.889-8.482,2.271-10.969-1.373c-0.278-0.415-0.466-0.716-0.648-1.028   c-1.179,0.372-1.738,1.209-2.021,2.183c2.774,2.085,5.824,4.612,6.782,7.894c2.199,7.534-12.095,12.323-14.664,3.411   c-0.208-0.723-2.266-4.476-4.592-8.583c-2.748-4.852-5.72-11.618-10.005-15.398c-2.236-1.566-2.636-4.76-2.636-7.059   c0-4.168,5.618-13.422,9.961-10.833c0.415,0.247,0.701,0.524,0.886,0.823c1.073,1.182,3.03,3.268,4.245,4.557   c1.39-1.833,2.569-3.825,3.888-5.707c13.69-17.999,19.431-38.51,19.911-63.512c0.432-22.474-6.819-41.583-18.212-59.099   l-3.369,3.335c-0.49,0.863-1.399,1.342-2.761,0.935c-3.835-1.148-12.962-12.08-9.001-15.181c1.771-1.198,3.583-2.583,5.105-3.898   c-0.239-0.343-0.521-0.672-0.846-0.978c-19.425-21.957-48.438-35.338-79.774-35.338c-31.995,0-60.354,14.758-79.806,36.745   C62.804,71.718,62.602,71.984,62.407,72.274z M53.016,81.288c-5.579-3.001-13.584-7.809-17.429-11.803   c-0.125-0.105-0.25-0.224-0.373-0.356c-1.579-1.704-2.992-3.541-5.412-4.044c-1.609-0.335-3.291,0.665-4.125,1.946   c-32.926,50.55-31.361,117.608,6.086,165.497c3.603,3.994,6.929,2.402,9.617,1.093c5.065-4.896,12.483-12.09,18.659-16.129   c-1.629-0.782-3.353-2.418-4.935-4.78c-14-18.431-21.738-41.439-22.225-66.81c-0.444-23.121,6.573-44.855,19.381-63.93   C52.509,81.708,52.761,81.481,53.016,81.288z M57.896,232.748c1.044,0.269,2.131,0.432,3.208,0.493l0.944-1.251l-2.127-2.034   c1.07,0.288,2.199,0.482,3.31,0.51l0.955-1.226l-2.241-2.077c1.077,0.3,2.23,0.526,3.354,0.522l1.286-1.37   c-1.376-0.13-2.784-0.709-3.579-1.891c-3.271,3.457-21.043,16.809-20.371,20.446c0.7,3.786,5.37,5.449,8.731,4.28l-1.983-0.578   l-1.603-1.859l4.986,0.693l0.586-1.099l-1.819-0.489l-1.73-1.897c1.473,0.248,2.987,0.515,4.484,0.555l0.544-1.054   c-1.037,0.049-2.49-1.557-3.005-2.293c1.26,0.22,2.673,0.584,3.963,0.478l0.602-1.101c-0.671,0.07-2.095-1.726-2.542-2.17   c1.118,0.255,2.361,0.515,3.517,0.467l0.731-1.205l-2.225-2.055c1.052,0.257,2.141,0.407,3.221,0.486l0.902-1.263L57.896,232.748z    M222.011,231.325c1.064,0.033,2.15-0.062,3.194-0.263l-2.226,1.872l0.757,1.325c1.098,0.021,2.213-0.072,3.292-0.27l-2.376,1.888   l0.658,1.289c1.174,0.055,2.387-0.055,3.542-0.25c-0.405,0.335-2.15,2.065-2.635,1.949l0.655,1.206   c1.264,0.062,2.555-0.038,3.804-0.229c-0.448,0.477-2.083,2.134-2.826,1.971l0.649,1.153c1.282,0.204,2.726-0.063,4-0.197   l-1.988,1.801l-1.018,0.182l0.609,1.111c1.358,0.22,2.871-0.017,4.22-0.167l-1.858,1.772l-1.394,0.206l0.56,1.106   c1.472,0.191,3.053,0.008,4.516-0.157l-1.729,1.743l-2.098,0.116l1.349,1.865l3.535-0.155l-0.707,1.077   c17.75,0.333-10.134-21.533-13.9-27.231c-0.801,0.944-2.019,1.426-3.227,1.555l0.646,0.821c1.115,0.08,2.273-0.057,3.363-0.279   l-2.217,1.885L222.011,231.325z M226.42,215.933c-0.783-0.831-1.965-2.088-3.009-3.212c-0.549,1.387-1.276,2.814-0.708,3.942   C223.795,218.829,225.312,217.146,226.42,215.933z M222.559,221.522c3.676,6.098,8.069,11.654,13.519,16.325   c0.473-0.792,1.485-1.917,2.581-2.533c-0.418-0.561-0.878-1.145-1.372-1.744c-0.579,0.458-1.132,1.058-1.601,1.896   c-0.165-1.053,0.109-2.203,0.729-2.931l-0.96-1.093c-0.631,0.481-1.232,1.104-1.715,1.961c-0.123-1.075,0.17-2.236,0.812-2.951   l-1.013-1.074c-0.654,0.497-1.273,1.128-1.746,1.961c-0.076-1.061,0.213-2.193,0.833-2.9l-1.073-1.072   c-0.652,0.505-1.262,1.129-1.706,1.909c-0.029-1.016,0.238-2.085,0.802-2.786l-1.146-1.081c-0.624,0.501-1.198,1.102-1.602,1.804   c0.014-0.94,0.248-1.916,0.728-2.604c-0.417-0.376-0.832-0.744-1.242-1.1c-0.568,0.482-1.081,1.035-1.432,1.641   c0.049-0.832,0.243-1.682,0.618-2.337c-0.469-0.395-0.929-0.772-1.378-1.128c-0.479,0.435-0.899,0.911-1.186,1.402   c0.07-0.683,0.22-1.372,0.479-1.954c-0.369-0.283-0.729-0.549-1.076-0.798C223.081,220.53,222.795,220.99,222.559,221.522z    M216.636,224.775l0.331,0.236c1.994,1.059,4.215-0.009,4.291-1.523l0.193-3.859l0.303,0.528c0.083-0.229,0.193-0.446,0.337-0.644   c-0.29-0.224-0.569-0.519-0.836-0.893c-0.609,1.188-1.011,2.51-1.385,3.757c-0.46-1.701-0.405-3.865,0.562-5.43   c-0.161-0.686-0.147-1.465-0.031-2.235c-1.834,1.221-2.556,5.416-2.893,6.995c-1.429-4.162,1.24-9.064,3.537-9.335   c0.159-0.398,0.327-0.75,0.486-1.029c0.15-0.264,0.146-0.429,0.135-0.49c-2.275-1.356-6.633,5.799-6.633,8.788   C215.032,221.955,215.503,223.894,216.636,224.775z M39.887,61.803c6.536,3.856,13.27,7.677,18.876,12.843   c0.384-1.772,1.359-3.298,2.555-4.65c19.833-22.417,48.785-37.504,81.494-37.504c31.954,0,61.532,13.598,81.39,36.021   c1.433,1.358,2.227,3.008,2.478,4.56c5.469-5.365,15.377-13.669,19.245-16.242c1.583-2.151,3.854-3.666,2.006-6.151   C222.583,19.723,184.71,2.253,142.821,2.253c-43.646,0-79.888,19.299-105.204,50.36C34.26,56.733,37.631,59.313,39.887,61.803z    M230.298,85.829l1.883-1.866c-2.105-2.406-3.43-1.137-2.262,0.968C230.075,85.212,230.201,85.515,230.298,85.829z M253.398,64.864   c-3.556,3.701-13.852,11.756-21,16.294c0.539,0.364,1.095,0.867,1.655,1.533c12.287,18.299,20.328,38.463,19.87,62.321   c-0.487,25.35-6.309,46.345-20.357,64.815c-1.217,1.742-4.5,7.454-7.722,9.507c5.868,4.498,13.971,12.779,16.605,17.667   c1.916,2.863,3.952,3.669,7.619,0.881c1.551-1.49,2.57-3.252,3.966-4.833c17.92-22.926,30.39-53.838,31.014-86.342   c0.578-30.081-9.615-58.25-24.86-81.656C258.771,63.122,256.063,63.203,253.398,64.864z M224.388,73.206   c-0.807,0.677-1.674,1.362-2.567,2.024c1.156,0.66,2.125,1.302,2.563-0.046C224.55,74.673,224.56,73.969,224.388,73.206z    M226.794,76.16c-2.249,2.474-0.315,2.618,1.627,4.896c-2.068-0.409-2.712-1.106-3.97-2.936l-1.079,0.137   c0.791,1.586,1.897,2.934,3.063,4.259c-2.493-0.97-3.611-1.846-4.673-4.625l-1.977-1.158c-1.177,2.392,5.885,11.159,8.423,11.294   c-0.149-2.221-2.012-5.138,0.212-6.971c6.375-5.254,13.813-9.314,20.197-14.83c-2.829-1.21-3.552-2.789-3.969-5.688l-0.763,0.588   c0.387,1.474,1.278,2.937,2.181,4.15c-1.644-0.625-2.495-1.703-3.474-3.13l-1.037,0.834c0.793,1.566,2.31,2.558,3.165,4.087   c-2.057-0.971-2.7-0.922-4.155-3.092L239.2,64.92c0.773,1.601,2.288,2.633,3.193,4.146c-1.967-0.858-3.043-1.132-4.25-3.26   l-1.283,1.09c0.756,1.619,2.254,2.681,3.203,4.167c-1.977-0.789-3.078-1.167-4.244-3.272l-1.282,1.117   c0.741,1.621,2.212,2.703,3.198,4.153c-2.089-0.754-2.758-1.059-4.126-3.1l-1.379,0.999c0.728,1.605,2.164,2.695,3.177,4.099   c-2.035-0.655-2.83-1.183-4.117-3.102l-1.347,1.105c0.717,1.566,2.108,2.652,3.135,3.995c-2.114-0.596-2.769-1.115-4.094-3.085   l-1.292,1.266c0.703,1.494,2.039,2.557,3.057,3.817C228.701,78.565,228.072,78.007,226.794,76.16z M243.851,56.552   c-1.024-1.472-1.751-2.973-2.832-4.411C243.731,52.74,244.354,53.914,243.851,56.552z M238.723,54.147   c2.747,0.409,3.45,1.536,3.133,4.203C240.731,56.953,239.901,55.507,238.723,54.147z M236.504,56.105   c2.76,0.313,3.502,1.415,3.277,4.091C238.609,58.839,237.729,57.423,236.504,56.105z M234.288,58.066   c2.738,0.214,3.581,1.294,3.418,3.974C236.487,60.725,235.558,59.34,234.288,58.066z M232.142,59.967   c2.738,0.214,3.581,1.294,3.418,3.974C234.341,62.626,233.412,61.242,232.142,59.967z M229.996,61.869   c2.738,0.214,3.581,1.294,3.418,3.975C232.195,64.527,231.266,63.143,229.996,61.869z M227.85,63.77   c2.738,0.214,3.581,1.294,3.418,3.975C230.049,66.429,229.12,65.044,227.85,63.77z M229.122,69.646   c-1.219-1.315-2.147-2.7-3.418-3.974C228.441,65.886,229.285,66.966,229.122,69.646z M243.466,50.454l1.604,0.327l0.841,1.13   c0.271,1.157-0.058,1.962-0.404,3.046C244.89,53.375,244.55,51.81,243.466,50.454z M24.527,144.117   c0.042-1.209-0.098-1.622-1.534-1.722l-10.876-0.76c-1.437-0.101-1.632,0.288-1.758,1.492l-0.041,0.582l-1.085-0.076l0.479-6.852   c0.184-2.628,0.665-6.239,4.693-5.958c2.174,0.152,3.76,1.684,3.929,3.604l0.075,1.267l4.472-2.092   c1.707-0.692,2.427-1.778,2.765-3.072l0.119-0.459c0.156-0.665-0.003-1.141-0.178-1.786c0,0,0.449,0.254,0.593,0.373   c0.824,0.678,1.161,1.689,1.009,2.757c-0.278,1.963-0.793,2.415-2.676,3.434c0,0-1.474,0.666-2.985,1.369   c-1.432,0.667-2.844,1.343-3.146,1.541l-0.139,2.012l5.174,0.361c1.058,0.074,1.379-0.494,1.493-1.511l0.041-0.581l1.085,0.076   l-0.465,6.661l-1.085-0.076L24.527,144.117z M11.067,136.361l-0.201,2.877l5.724,0.4l0.146-2.102   c0.144-2.061,0.174-4.259-2.653-4.456C11.849,132.925,11.194,134.548,11.067,136.361z M38.821,89.405   c0.46-0.83,0.673-1.419-0.641-2.147l-4.113-2.28l-8.494,0.384c-1.066,0.042-1.496,0.714-1.948,1.53l-0.957-0.53l3.423-6.176   l0.956,0.53c-0.259,0.468-1.031,1.592-0.308,1.993c0.339,0.188,0.612,0.194,0.836,0.187l5.882-0.14l-2.871-4.875   c-0.338-0.604-0.998-0.938-1.597-0.394c-0.323,0.292-0.53,0.682-0.738,1.058l-0.956-0.53l3.009-5.428l0.939,0.521   c-0.58,1.446-0.426,2.143,0.335,3.47l3.729,6.438l3.995,2.214c1.583,0.877,1.828,0.006,2.496-1.199l0.956,0.53l-3.275,5.908   l-0.957-0.53L38.821,89.405z M21.812,101.613l-0.441,1.147l-4.609-1.77l5.108-13.308l4.609,1.77l-0.44,1.147   c-2.28-0.875-3.335-0.902-4.188,1.319l-0.679,1.77l11.839,4.544c1.006,0.386,1.525-0.134,1.99-1.221l0.228-0.592l1.021,0.392   l-2.693,7.016l-1.021-0.392l0.227-0.592c0.382-1.119,0.344-1.853-0.662-2.239l-11.839-4.545l-0.679,1.77   C18.729,100.052,19.531,100.737,21.812,101.613z M15.085,109.74l-1.045-0.32l1.987-6.5l1.046,0.32l-0.172,0.561   c-0.263,1.013-0.166,1.677,0.875,1.996l11.158,3.412c1.042,0.318,1.495-0.178,1.842-1.165l0.171-0.561l1.045,0.32l-1.987,6.5   l-1.045-0.32l0.171-0.561c0.264-1.013,0.166-1.677-0.875-1.996l-11.158-3.412c-1.042-0.318-1.494,0.178-1.842,1.165L15.085,109.74z    M27.312,127.176l-0.194,0.998l-4.891-0.951l0.189-0.972c5.178,0.08,6.541-7.401,2.316-8.223c-1.711-0.333-2.582,0.924-3.28,2.199   c-1.408,2.573-2.46,6.014-6.37,5.254c-3.251-0.632-4.177-3.537-3.686-6.065c0.257-1.321,0.845-2.253,1.536-3.345   c0.142-0.224,0.225-0.381,0.247-0.497c0.077-0.395-0.19-0.577-0.498-0.636l0.194-0.998l4.891,0.951l-0.192,0.991   c-2.694-0.407-4.144,0.934-4.627,3.42c-0.298,1.534,0.099,3.42,2.022,3.794c1.681,0.327,2.528-0.97,3.204-2.213   c1.462-2.69,2.559-5.996,6.601-5.21c3.453,0.671,4.441,3.84,3.915,6.545c-0.284,1.459-1.093,2.559-1.853,3.775   c-0.18,0.288-0.293,0.507-0.325,0.674C26.448,126.998,27.091,127.133,27.312,127.176z M25.493,158.219   c-0.129-1.231-0.332-1.633-1.803-1.53l-11.098,0.776c-1.471,0.103-1.616,0.528-1.573,1.766l0.041,0.585l-1.09,0.076l-0.821-11.733   l4.88-0.341l0.07,1.003c-2.278,0.322-3.375,0.357-3.193,2.968l0.242,3.452l5.856-0.409c-0.176-2.516,0.13-3.175-2.821-3.074   l-0.071-1.008l6.685-0.468l0.07,1.009c-2.938,0.311-2.542,0.92-2.366,3.436l6.308-0.441l-0.327-4.67   c-0.156-2.224-2.122-2.059-3.677-2.015l-0.07-1.007l5.016-0.351l0.873,12.485l-1.091,0.076L25.493,158.219z M14.681,177.044   l0.055,0.258l-1.069,0.228l-1.375-6.469l1.069-0.227c0.142,0.668,0.453,2.046,1.427,1.839c0.371-0.079,0.638-0.231,0.863-0.361   l9.145-5.739l-10.035-1.375c-0.405-0.059-1.134-0.123-1.59-0.026c-1.005,0.214-0.671,1.606-0.525,2.296l-1.069,0.227l-1.202-5.652   l1.07-0.227c0.202,0.951,0.83,1.566,1.824,1.703l14.924,2.048l0.306,1.437l-12.796,8.065   C14.867,175.603,14.525,176.312,14.681,177.044z M17.718,186.346l-1.034,0.356l-2.212-6.426l1.034-0.356l0.191,0.555   c0.382,0.974,0.852,1.454,1.881,1.1l11.032-3.798c1.03-0.355,1.104-1.022,0.805-2.025l-0.191-0.555l1.034-0.356l2.212,6.426   l-1.034,0.356l-0.191-0.554c-0.382-0.974-0.851-1.455-1.881-1.1l-11.033,3.799c-1.03,0.354-1.104,1.022-0.805,2.025L17.718,186.346   z M30.691,188.363l-9.181,4.088c-0.984,0.438-0.984,1.173-0.544,2.271l0.258,0.579l-0.999,0.445l-2.634-5.916l0.999-0.445   l0.258,0.58c0.512,1.041,1.054,1.56,2.3,1.005l12.708-5.658l0.566,1.272l-7.288,14.518l9.18-4.087   c0.984-0.438,0.984-1.173,0.544-2.271l-0.258-0.579l0.999-0.445l2.708,6.081l-0.999,0.445l-0.258-0.58   c-0.58-1.196-1.046-1.563-2.299-1.004l-10.412,4.635c-0.984,0.438-0.984,1.173-0.544,2.271l0.258,0.58l-0.999,0.444l-1.624-3.647   L30.691,188.363z M45.754,207.009c2.049,2.927,1.611,6.375-1.832,8.785l-6.594,4.617c-0.892,0.625-0.779,1.287-0.216,2.168   l0.336,0.48l-0.896,0.627l-3.898-5.567l0.896-0.627l0.336,0.48c0.635,0.831,1.219,1.163,2.111,0.539l6.946-4.864   c2.3-1.611,2.687-3.883,1.164-6.058c-1.35-1.927-3.657-2.508-6.694-0.381l-6.261,4.384c-0.892,0.625-0.78,1.287-0.216,2.168   l0.336,0.48l-0.896,0.627l-3.455-4.934l0.896-0.627l0.336,0.48c0.635,0.831,1.219,1.164,2.111,0.539l6.279-4.397   C40.18,203.385,43.51,203.805,45.754,207.009z M63.842,217.568c-0.321,0.169-0.649,0.353-0.983,0.55   c0.639,0.577,0.848,1.392,0.862,2.247l0.745-0.807l0.133,2.664c0.075,1.491,2.353,2.572,4.373,1.499   c1.383-0.735,1.934-2.835,1.934-5.371c0-2.561-4.049-10.341-6.935-8.739c-0.257,0.38-0.06,1.033,0.26,1.818   c2.359-0.063,5.154,5.182,3.569,9.448c-0.33-1.556-0.908-5.708-2.628-7.042c0.254,0.875,0.34,1.751-0.037,2.506   c0.751,1.562,0.704,3.567,0.216,5.148c-0.349-1.331-0.727-2.748-1.352-4.009L63.842,217.568z M39.488,233.813   c-0.17-0.38-1.925-1.639-2.22-1.912c0.444,1.712,0.425,2.181,2.244,2.591l0.935-0.454L39.488,233.813z M55.918,215.083   c0.969,1.104,1.448,2.095,2.622,2.996C56.277,217.827,55.751,217.368,55.918,215.083z M56.038,219.912   c-2.325-0.142-2.748-0.704-2.667-2.918C54.358,218.102,54.822,219.063,56.038,219.912z M53.48,221.741   c-2.365-0.019-2.715-0.666-2.711-2.841C51.722,219.973,52.271,220.976,53.48,221.741z M51.022,223.747   c-2.388,0.122-2.688-0.636-2.757-2.765C49.184,222.019,49.827,223.064,51.022,223.747z M48.831,225.997   c-2.408,0.265-2.667-0.611-2.802-2.688c0.555,0.628,1.537,1.479,1.931,2.243L48.831,225.997z M46.69,228.306   c-2.407,0.413-2.651-0.574-2.848-2.611c0.197,0.224,1.869,1.914,1.956,2.206L46.69,228.306z M44.445,230.496l-1.101,0.255   c-1.655-0.59-1.587-1.176-1.792-2.79c0.137,0.156,1.963,1.94,1.981,2.169L44.445,230.496z M41.097,232.667   c-1.683-0.57-1.62-1.137-1.867-2.779c0.548,0.626,1.572,1.331,2.006,2.132l0.932,0.325L41.097,232.667z"/>
	<path fill="#990000" d="M72.48,243.127c1.508-1.682,2.709-3.792,3.986-5.586c1.216-1.798,3.011-3.905,4.158-5.368l-1.369,5.25   c-0.862,3.305,2.332,5.837,4.869,4.699c7.886-3.538-3.854-19.375-10.614-8.605c-0.339,0.699-0.613,1.248-0.915,1.803   C71.601,237.83,71.64,240.521,72.48,243.127z M211.238,235.236c-0.277-0.511-0.53-1.016-0.755-1.512l-0.125-0.204   c-6.76-10.77-18.5,5.068-10.614,8.605c2.537,1.138,5.731-1.394,4.869-4.699l-1.369-5.249c0.987,1.26,3.015,3.635,4.179,5.398   c1.253,1.787,2.464,3.885,3.963,5.555C212.236,240.495,212.267,237.771,211.238,235.236z M110.194,266.308   c1.328,0.918,1.564,1.492,3.148,2.001C111.164,268.659,110.631,268.458,110.194,266.308z M108.978,268.114   c0.85,0.834,1.809,1.595,2.868,2.146C109.877,270.439,109.323,270.083,108.978,268.114z M107.762,269.919   c0.771,0.896,1.766,1.467,2.587,2.291C108.453,272.232,108.033,271.76,107.762,269.919z M106.546,271.725   c0.568,0.736,1.315,1.586,2.167,2.01l0.14,0.426C107.037,274.021,106.749,273.447,106.546,271.725z M105.33,273.53   c0.57,0.798,1.381,1.846,2.323,2.242l-0.297,0.339C105.635,275.809,105.466,275.146,105.33,273.53z M104.114,275.335   c0.572,0.847,1.451,2.115,2.479,2.473l-0.733,0.253C104.243,277.599,104.185,276.86,104.114,275.335z M105.534,279.846l-1.17,0.166   c-1.404-0.577-1.46-1.497-1.465-2.871C103.412,277.935,104.546,279.566,105.534,279.846z M172.76,268.222   c-0.765,0.498-1.51,0.399-2.38,0.192C171.974,267.902,174.907,264.795,172.76,268.222z M173.987,270.581   c-0.552,0.436-1.294,0.442-1.943,0.25c0.848-0.333,1.396-1.109,2.094-1.659l0.573-0.429c0.268,0.166-0.016,0.657-0.177,0.927   L173.987,270.581z M175.343,272.657c-0.209,0.14-1.643,0.752-1.575,0.146c0.085-0.762,1.107-1.062,1.692-1.557l0.563-0.454   c0.277,0.159,0.007,0.668-0.151,0.945L175.343,272.657z M179.098,279.409l1.726-2.164c-0.006,0.858-0.018,1.509-0.482,2.275   l-0.912,0.566l-1.241-0.137L179.098,279.409z M176.767,274.27c-0.615,0.498-1.438,0.511-2.193,0.488   C175.633,274.128,178.89,270.408,176.767,274.27z M177.894,276.117c-0.615,0.498-1.438,0.511-2.193,0.488   C176.759,275.975,180.017,272.254,177.894,276.117z M179.214,277.752c-0.56,0.56-1.377,0.659-2.13,0.715   C178.07,277.73,180.921,273.688,179.214,277.752z M139.247,281.599l-1.71,4.625l-0.975-0.055c0,0-1.004-3.183-1.432-4.692   l-0.145,4.579l-1.239-0.111l0.257-7.017l1.408,0.123l1.681,5.115l1.881-4.914l1.048,0.027l0.39,0.006l0.006,7.032l-0.407-0.008   l-0.861-0.021C139.148,286.29,139.163,283.024,139.247,281.599z M148.257,286.078c-1.622,0.126-3.24,0.201-4.866,0.236   l-0.147-7.031c1.598-0.034,3.181-0.112,4.774-0.234l0.055,1.154c-1.192,0.091-2.383,0.162-3.578,0.203l0.043,1.661   c1.05-0.036,2.099-0.095,3.146-0.17l0.052,1.156c-1.055,0.075-2.11,0.133-3.168,0.169l0.049,1.902   c1.26-0.043,2.516-0.118,3.772-0.216l0.056,1.155L148.257,286.078z M152.115,285.642l-1.227,0.152l-0.491-6.923   c0.977-0.116,1.95-0.246,2.921-0.396c0.495-0.054,1.023-0.062,1.472,0.195c1.028,0.588,1.423,2.874-0.258,3.691l2.007,2.578   l-1.427,0.252l-1.921-2.5l-1.288,0.18L152.115,285.642z M153.306,279.632c-0.543,0.083-1.083,0.16-1.63,0.232l0.141,1.864   c0.548-0.072,1.095-0.15,1.636-0.233c0.536-0.066,0.768-0.286,0.848-0.386c0.291-0.365,0.131-1.03,0.045-1.161   C154.146,279.641,153.967,279.581,153.306,279.632z M161.145,276.913l1.091-0.303l0.748,4.578c0.08,0.721,0.075,1.358-0.331,2   c-0.805,1.272-3.921,2.222-4.396-0.86l-0.62-4.568l1.119-0.248l0.625,4.444c0.352,2.405,2.68,1.286,2.46-0.656L161.145,276.913z    M167.849,282.157l-1.207,0.442l-1.675-6.715l1.172-0.431L167.849,282.157z M172.61,279.791l-1.08,0.539l-2.085-5.281   c-0.535,0.261-1.073,0.514-1.613,0.764l-0.407-1.066c1.421-0.657,2.81-1.349,4.189-2.09l0.436,1.054   c-0.514,0.276-1.029,0.548-1.549,0.812L172.61,279.791z M115.039,280.991l-0.917,0.638l-0.619-1.227   c-1.262,0.357-2.393-0.579-2.816-1.109c-1.588-1.99-0.501-6.346,1.875-6.283c2.945,0.079,4.042,4.688,1.897,6.823L115.039,280.991z    M114.201,275.273c-0.552-1.203-2.272-1.972-3.017,0.565c-0.488,1.663-0.007,2.957,1.102,3.401   C113.82,279.853,115.01,277.036,114.201,275.273z M118.516,281.407c0.889,0.901,1.842,1.217,2.276-0.402l0.94-4.306l1.094,0.382   l-0.942,4.417l-0.094,0.329c-0.961,2.977-5.151,1.109-4.471-2.005l1.072-4.425l1.055,0.434l-1.003,4.229   C118.343,280.503,118.277,280.992,118.516,281.407z M127.156,278.164l-1.102,6.84l-1.194-0.313l1.137-6.829L127.156,278.164z    M187.645,270.427l-1.242-0.098l-2.134-6.641c1.51,0.143,2.958,0.172,4.473,0.09l0.372,1.096c-1.092,0.059-2.172,0.078-3.265,0.021   l0.478,1.47c1.018,0.058,2.029,0.053,3.047,0.006l0.371,1.095c-1.022,0.047-2.035,0.06-3.058,0.007L187.645,270.427z    M194.319,270.743l-2.076-6.854c1.369-0.133,2.682-0.336,4.025-0.632l0.458,1.458c-0.886,0.193-1.773,0.368-2.672,0.491   l0.333,1.166c0.792-0.103,1.575-0.246,2.357-0.404l0.449,1.446c-0.793,0.16-1.588,0.307-2.391,0.415l0.383,1.34   c0.962-0.122,1.912-0.298,2.859-0.501l0.45,1.425C197.106,270.387,195.734,270.614,194.319,270.743z M203.421,268.551l-1.04,0.393   l-2.599-6.305c0.749-0.275,1.488-0.567,2.217-0.891c2.315-0.905,3.32,2.239,2.308,3.306c0.904,0.654,1.897,1.162,2.789,1.839   l-1.166,0.578c-0.851-0.658-1.818-1.144-2.67-1.798l-0.9,0.372L203.421,268.551z M202.365,262.838   c-0.383,0.169-0.767,0.33-1.156,0.484l0.704,1.664c0.402-0.16,0.801-0.326,1.196-0.5l0.262-0.146   C204.099,263.811,203.353,262.447,202.365,262.838z M210.659,264.879l-1.016,0.667c-0.755-2.391-1.551-4.677-2.414-7.027l0.807-0.6   c1.952,1.533,3.9,2.983,5.905,4.442l-0.9,0.753c-0.579-0.419-1.143-0.856-1.711-1.289c-0.443,0.346-0.898,0.684-1.366,1.013   L210.659,264.879z M208.813,259.766l0.722,1.916c0.277-0.199,0.549-0.4,0.816-0.605   C209.835,260.669,209.229,260.186,208.813,259.766z M216.961,258.886l-0.729,0.88l-3.478-4.862   c-0.333,0.387-0.679,0.761-1.028,1.133l-0.676-0.987c0.938-0.998,1.778-2.018,2.578-3.129l0.724,0.953   c-0.292,0.405-0.59,0.804-0.901,1.194L216.961,258.886z M68.322,259.71l-0.719-0.773c1.838-1.322,3.664-2.665,5.479-4.018   l0.667,0.635c-0.938,2.201-1.845,4.418-2.734,6.638l-0.839-0.715l0.799-1.917c-0.365-0.332-0.719-0.669-1.062-1.012L68.322,259.71z    M72.228,256.779l-1.41,1.081l0.626,0.598C71.444,258.458,71.914,257.397,72.228,256.779z M76.591,266.164   c-0.952-0.559-1.864-1.166-2.758-1.813l3.741-5.785l0.806,0.573l-3.088,4.85c0.668,0.458,1.354,0.886,2.053,1.297l-0.586,0.978   L76.591,266.164z M85.578,265.365c-0.947,1.191-1.907,2.372-2.867,3.552l-0.79-0.281c0.217-1.448,0.455-2.932,0.778-4.361   l-1.876,3.932l-0.97-0.418l3.001-6.173l1.063,0.455c-0.263,1.59-0.501,3.185-0.736,4.78c1.074-1.292,2.135-2.603,3.192-3.909   l1.106,0.314l-2.659,6.299l-1.005-0.281C83.816,269.273,84.915,266.72,85.578,265.365z M88.984,270.437l-1.118-0.187   c1.421-2.052,2.812-4.126,4.18-6.214l0.921,0.088c-0.175,2.194-0.331,4.391-0.477,6.587l-1.034-0.025l0.146-1.908   c-0.462-0.032-0.931-0.078-1.406-0.139L88.984,270.437z M91.897,265.968l-1.022,1.613l0.816,0.077   C91.691,267.657,91.785,266.614,91.897,265.968z M101.099,266.288l-2.889,3.832l-0.93,0.18c0.243-1.284,0.48-2.607,0.885-3.853   l-2.04,4.044l-1.196,0.173l3.244-6.391l1.285-0.189c-0.25,1.329-0.491,2.659-0.733,3.99c1.154-1.502,2.3-3.019,3.448-4.525   l1.354-0.327l-3.103,6.393l-1.189,0.289C99.234,269.905,100.294,267.732,101.099,266.288z M64.218,254.723l-0.474-0.862   l4.489-4.937c0.361,0.677,0.74,1.333,1.166,1.972c0.761,1.638-1.649,4.383-2.721,2.901c-0.234-0.353-0.459-0.712-0.668-1.069   L64.218,254.723z M68.488,251.495c-0.197-0.302-0.382-0.6-0.56-0.902l-1.162,1.293c0.187,0.324,0.385,0.646,0.593,0.966   c0.135,0.162,0.183,0.193,0.234,0.206C67.881,253.128,68.923,252.31,68.488,251.495z M206.847,250.264   c-1.792-2.116-4.244-4.139-8.079-6.109c-3.238-1.537-5.547-5.762-2.503-11.089c3.306-5.785,11.238-8.333,16.001-0.744   c0.424,0.676,0.779,1.361,1.068,2.052c2.743,4.949,7.969,10.644,11.607,13.917c5.854,6.065-0.958,15.234-5.827,19.084   c-9.351,7.394-23.37,12.147-35.383,9.001c1.292,3.281-1.299,7.154-5.091,9.377c-7.854,4.604-20.528,9.159-35.702,9.159   c-14.345,0-29.842-4.536-37.728-9.159c-3.776-2.213-6.358-6.06-5.118-9.316c-12.01,3.136-26.019-1.616-35.363-9.005   c-4.87-3.851-11.681-13.02-5.827-19.084c3.63-3.266,8.839-8.941,11.587-13.882c0.296-0.723,0.665-1.439,1.108-2.147   c4.764-7.59,12.696-5.041,16.001,0.743c3.189,5.583,0.502,9.955-3.011,11.219c0,0-5.848,3.927-7.564,5.991   c2.966,2.958,6.991,5.273,11.499,6.278c6.875,1.532,11.318,2.384,17.882-1.095c4.424-2.345,8.925-5.38,13.943-1.959   c2.062,1.406,3.409,4.087,0.95,6.423c-1.252,1.593-3.383,4.787-4.452,6.771c1.47,0.784,2.849,1.356,3.393,1.558   c4.769,1.762,13.173,3.513,22.345,3.412c6.294,0.07,17.086-1.115,24.078-4.699c-1.046-2.22-3.296-5.783-4.452-7.395   c-3.688-4.168,3.599-9.342,9.458-7.005c7.342,2.929,9.228,6.274,18.187,5.084c2.148-0.285,4.033-0.772,5.481-1.096   C199.85,255.544,203.879,253.225,206.847,250.264z M77.194,240.473c-1.143,1.664-2.32,3.498-3.772,4.923   c0.562,1.101,1.262,2.17,2.082,3.187l0.433-0.49c-0.574-0.195-1.063-0.719-1.33-1.358l-0.217-0.52l0.546,0.139   c0.251,0.064,0.556,0.126,0.865,0.187c0.326,0.064,0.656,0.127,0.935,0.192c0.191,0.044,0.335,0.085,0.433,0.119   c-0.302-0.355-0.731-0.842-0.974-1.426l-0.217-0.521l0.546,0.14c0.251,0.064,0.556,0.125,0.865,0.187   c0.326,0.064,0.656,0.127,0.934,0.191c0.182,0.042,0.321,0.081,0.418,0.114c-0.474-0.411-1.043-1.198-1.178-2.08   c0.244,0.25,1.798,0.445,2.596,0.661C78.897,243.497,77.817,242.316,77.194,240.473z M119.646,258.38l0.188-0.231   c2.162-2.288-3.359-4.873-6.813-3.495c-4.086,1.63-7.331,4.256-11.778,5.105c-4.688,0.896-8.687-0.003-13.207-1.011   c-9.44-2.104-18.06-10.213-18.491-18.741l-0.535,0.708c0.105,0.774,0.047,2.526,0.489,3.575c-0.641-0.379-1.177-1.387-1.509-2.284   l-0.517,0.629c0.1,0.847-0.047,2.362,0.472,3.454c-0.623-0.369-1.254-1.318-1.53-2.21l-0.491,0.558   c0.106,0.863-0.148,2.267,0.468,3.45c-0.623-0.368-1.345-1.306-1.595-2.21l-0.436,0.466c0.148,0.873-0.26,2.223,0.478,3.542   c-0.642-0.379-1.47-1.349-1.688-2.289l-0.376,0.378c0.26,0.894-0.376,2.207,0.51,3.709c-0.68-0.401-1.648-1.453-1.799-2.457   l-0.347,0.326c0.49,0.946-0.473,2.203,0.593,3.929c-0.699-0.412-1.771-1.496-1.894-2.535c-0.089,0.132-0.171,0.265-0.247,0.4   c0.51,0.99-0.582,2.109,0.588,3.933c-0.375-0.221-0.876-0.632-1.282-1.128c0.028,4.484,4.58,9.615,7.231,11.711   c9.471,7.489,24.251,12.277,36.079,7.732c2.76-3.626,5.662-8.027,7.932-12.647l0.116-0.237   C112.346,256.673,116.884,260.811,119.646,258.38z M209.353,246.448c-0.292,0.462-0.818,1.392-1.422,1.641l0.437,0.487   c0.817-1.013,1.516-2.08,2.076-3.178c-1.451-1.425-2.627-3.258-3.77-4.921c-0.673,1.991-1.878,3.208-3.271,3.782l0.476,0.326   c1.136,0.07,1.821-0.087,2.947-0.679c-0.822,1.302-1.162,1.736-1.608,1.675l0.365,0.294c0.871,0.201,1.725-0.147,2.55-0.67   c-0.294,0.466-0.826,1.405-1.435,1.646l0.25,0.236C207.695,247.058,208.556,247.004,209.353,246.448z M222.141,248.764   c-0.116,1.023-1.112,2.114-1.808,2.524c0.909-1.54,0.218-2.881,0.531-3.776l-0.381-0.386c-0.19,0.963-1.045,1.975-1.704,2.363   c0.761-1.363,0.301-2.758,0.494-3.627l-0.431-0.464c-0.227,0.929-0.974,1.913-1.616,2.292c0.641-1.23,0.34-2.699,0.482-3.55   l-0.478-0.549c-0.26,0.917-0.914,1.92-1.558,2.301c0.544-1.143,0.357-2.75,0.488-3.568l-0.497-0.611   c-0.329,0.92-0.88,1.987-1.544,2.381c0.469-1.112,0.375-3.017,0.511-3.705l-0.307-0.409c-0.413,8.538-9.045,16.662-18.496,18.769   c-7.423,1.655-12.358,2.448-19.437-1.303c-3.544-1.878-7.58-4.841-11.618-2.088c-1.271,0.867-1.545,1.729-0.995,2.534l0.171,0.232   c0.065,0.073,0.137,0.146,0.217,0.218c2.758,2.51,7.331-1.689,9.408,2.123c0.163,0.298,0.281,0.593,0.359,0.885   c1.158,2.759,4.906,8.464,7.508,11.932c11.869,4.655,26.756-0.146,36.277-7.674c2.728-2.157,7.495-7.557,7.221-12.14   c-0.431,0.623-1.054,1.154-1.5,1.417c1.219-1.901-0.019-3.036,0.661-4.058c-0.094-0.148-0.197-0.295-0.309-0.438   c-0.021,1.086-1.17,2.265-1.906,2.698c1.084-1.755,0.07-3.025,0.619-3.977L222.141,248.764z M181.535,276.988   c-1.896-2.106-6.037-8.008-8.396-12.226c-1.983,2.752-6.667,4.832-8.746,5.6c-5.015,1.853-12.352,3.652-21.795,3.551   c-8.265,0.092-23.27-1.547-30.251-7.433c-0.632-0.533-1.239-1.156-1.7-1.842c-2.521,4.553-5.497,8.755-8.182,12.084   c-1.047,1.641-0.069,4.768,3.887,7.087c7.506,4.4,22.602,8.85,36.588,8.85c14.739,0,27.024-4.431,34.562-8.85   C181.253,281.61,182.327,278.685,181.535,276.988z M171.736,261.922l-0.14-0.379c-0.641-1.175-2.925,0.053-5.443-0.088   c0.91,1.468,1.841,3.078,2.466,4.371c0.512-0.339,0.993-0.695,1.437-1.068C171.483,263.554,171.883,262.626,171.736,261.922z    M117.426,261.466c-2.408,0.044-4.55-1.055-5.167,0.078c-0.582,1.336,0.837,2.784,2.652,3.998   C115.558,264.351,116.497,262.85,117.426,261.466z"/>
</g>
</svg>